<svg xmlns="http://www.w3.org/2000/svg" xmlns:xlink="http://www.w3.org/1999/xlink" width="500" height="500" fill="none" xmlns:v="https://vecta.io/nano"><g clip-path="url(#A)"><path fill="#fff" d="M0 0h500v500H0z"/><path fill="#ebf2ef" d="M0 0h500v500H0z"/><path d="M74.93 153.315c-2.497 0-4.655-.525-6.475-1.575s-3.232-2.532-4.235-4.445c-.98-1.913-1.47-4.177-1.47-6.79 0-2.59.49-4.842 1.47-6.755 1.003-1.913 2.415-3.383 4.235-4.41 1.82-1.05 3.978-1.575 6.475-1.575s4.643.525 6.44 1.575c1.82 1.027 3.22 2.497 4.2 4.41s1.47 4.165 1.47 6.755c0 2.613-.49 4.877-1.47 6.79s-2.38 3.395-4.2 4.445c-1.797 1.05-3.943 1.575-6.44 1.575zm0-4.235c2.053 0 3.675-.723 4.865-2.17 1.213-1.47 1.82-3.605 1.82-6.405s-.607-4.912-1.82-6.335c-1.19-1.447-2.812-2.17-4.865-2.17-2.077 0-3.71.723-4.9 2.17-1.19 1.423-1.785 3.535-1.785 6.335 0 2.823.595 4.958 1.785 6.405s2.823 2.17 4.9 2.17zM90.957 153v-12.67l-.07-2.52c-.023-.863-.093-1.715-.21-2.555h4.97l.56 4.69-.56-.28c.28-1.587.945-2.788 1.995-3.605 1.073-.817 2.287-1.225 3.64-1.225.397 0 .747.035 1.05.105.327.07.607.152.84.245l-.035 4.83c-.863-.397-1.726-.595-2.59-.595-.956 0-1.75.175-2.38.525-.607.35-1.085.852-1.435 1.505-.327.63-.49 1.388-.49 2.275V153h-5.285zm31.794 0h-5.215v-4.34l.42.77a5.1 5.1 0 0 1-2.24 2.835c-1.097.677-2.357 1.015-3.78 1.015-1.54 0-2.905-.385-4.095-1.155-1.167-.793-2.088-1.878-2.765-3.255-.653-1.4-.98-3.033-.98-4.9 0-1.843.327-3.453.98-4.83s1.575-2.438 2.765-3.185c1.19-.77 2.555-1.155 4.095-1.155 1.423 0 2.683.362 3.78 1.085 1.097.7 1.843 1.633 2.24 2.8l-.49.63V127.24h5.285V153zm-9.275-3.745c1.283 0 2.275-.443 2.975-1.33.723-.887 1.085-2.182 1.085-3.885 0-1.633-.362-2.905-1.085-3.815-.7-.91-1.692-1.365-2.975-1.365-1.33 0-2.357.443-3.08 1.33-.7.887-1.05 2.147-1.05 3.78 0 1.703.362 3.01 1.085 3.92.747.91 1.762 1.365 3.045 1.365zm29.151 1.855c-.863.677-1.913 1.213-3.15 1.61-1.237.373-2.485.56-3.745.56-1.983 0-3.698-.373-5.145-1.12-1.423-.747-2.52-1.808-3.29-3.185s-1.155-3.01-1.155-4.9c0-1.82.373-3.43 1.12-4.83s1.762-2.485 3.045-3.255c1.307-.793 2.823-1.19 4.55-1.19 1.657 0 3.092.373 4.305 1.12 1.213.723 2.147 1.762 2.8 3.115.653 1.33.98 2.917.98 4.76v.77h-12.145l.07-2.625h8.925l-1.365 1.085c.023-1.493-.268-2.613-.875-3.36-.583-.77-1.435-1.155-2.555-1.155-1.213 0-2.158.443-2.835 1.33-.653.863-.98 2.135-.98 3.815 0 1.983.385 3.418 1.155 4.305.793.887 1.995 1.33 3.605 1.33.933 0 1.855-.152 2.765-.455a9.2 9.2 0 0 0 2.52-1.295l1.4 3.57zm3.633 1.89v-12.67l-.07-2.52a22.94 22.94 0 0 0-.21-2.555h4.97l.56 4.69-.56-.28c.28-1.587.945-2.788 1.995-3.605 1.073-.817 2.287-1.225 3.64-1.225.397 0 .747.035 1.05.105.327.07.607.152.84.245l-.035 4.83c-.863-.397-1.727-.595-2.59-.595-.957 0-1.75.175-2.38.525-.607.35-1.085.852-1.435 1.505-.327.63-.49 1.388-.49 2.275V153h-5.285zm24.199 0v-25.76h5.285v11.62l-.595-.175c.607-1.26 1.447-2.217 2.52-2.87 1.097-.677 2.357-1.015 3.78-1.015 4.177 0 6.265 2.485 6.265 7.455V153h-5.285v-10.5c0-1.26-.233-2.17-.7-2.73-.443-.56-1.155-.84-2.135-.84-1.166 0-2.1.373-2.8 1.12s-1.05 1.75-1.05 3.01V153h-5.285zm37.041-1.89c-.863.677-1.913 1.213-3.15 1.61-1.237.373-2.485.56-3.745.56-1.983 0-3.698-.373-5.145-1.12-1.423-.747-2.52-1.808-3.29-3.185s-1.155-3.01-1.155-4.9c0-1.82.373-3.43 1.12-4.83s1.762-2.485 3.045-3.255c1.307-.793 2.823-1.19 4.55-1.19 1.657 0 3.092.373 4.305 1.12 1.213.723 2.147 1.762 2.8 3.115.653 1.33.98 2.917.98 4.76v.77H195.67l.07-2.625h8.925l-1.365 1.085c.023-1.493-.268-2.613-.875-3.36-.583-.77-1.435-1.155-2.555-1.155-1.213 0-2.158.443-2.835 1.33-.653.863-.98 2.135-.98 3.815 0 1.983.385 3.418 1.155 4.305.793.887 1.995 1.33 3.605 1.33.933 0 1.855-.152 2.765-.455a9.2 9.2 0 0 0 2.52-1.295l1.4 3.57zm10.598 2.17c-1.54 0-2.905-.373-4.095-1.12s-2.112-1.808-2.765-3.185-.98-2.987-.98-4.83.327-3.465.98-4.865c.677-1.423 1.598-2.52 2.765-3.29 1.19-.793 2.555-1.19 4.095-1.19 1.423 0 2.683.35 3.78 1.05s1.843 1.645 2.24 2.835l-.42.28v-3.71h5.215V153h-5.215v-3.64l.42.07a5.1 5.1 0 0 1-2.24 2.835c-1.097.677-2.357 1.015-3.78 1.015zm1.54-4.025c1.283 0 2.275-.443 2.975-1.33.723-.887 1.085-2.17 1.085-3.85s-.362-2.963-1.085-3.85c-.7-.91-1.692-1.365-2.975-1.365s-2.298.467-3.045 1.4c-.723.933-1.085 2.228-1.085 3.885s.35 2.928 1.05 3.815c.723.863 1.75 1.295 3.08 1.295zM233.179 153v-25.76h5.285V153h-5.285zm7.609-13.79v-3.955h13.16v3.955h-13.16zm13.16 9.52v4.06a6.82 6.82 0 0 1-1.47.385 11.15 11.15 0 0 1-1.575.105c-2.193 0-3.873-.618-5.04-1.855-1.143-1.26-1.715-2.998-1.715-5.215v-15.12l5.285-1.715v16.73c0 .7.129 1.26.385 1.68s.595.723 1.015.91a3.74 3.74 0 0 0 1.365.245l.805-.035.945-.175zm2.712 4.27v-25.76h5.285v11.62l-.595-.175c.607-1.26 1.447-2.217 2.52-2.87 1.097-.677 2.357-1.015 3.78-1.015 4.177 0 6.265 2.485 6.265 7.455V153h-5.285v-10.5c0-1.26-.233-2.17-.7-2.73-.443-.56-1.155-.84-2.135-.84-1.166 0-2.1.373-2.8 1.12s-1.05 1.75-1.05 3.01V153h-5.285zm29.831.28c-1.913 0-3.57-.373-4.97-1.12s-2.473-1.797-3.22-3.15c-.723-1.377-1.085-2.998-1.085-4.865s.397-3.5 1.19-4.9 1.902-2.485 3.325-3.255c1.423-.793 3.092-1.19 5.005-1.19 1.26 0 2.497.198 3.71.595s2.193.933 2.94 1.61l-1.4 3.675c-.7-.56-1.47-.992-2.31-1.295-.84-.327-1.657-.49-2.45-.49-1.423 0-2.543.432-3.36 1.295s-1.225 2.147-1.225 3.85c0 1.727.397 3.022 1.19 3.885.817.863 1.948 1.295 3.395 1.295.793 0 1.61-.152 2.45-.455s1.61-.747 2.31-1.33l1.4 3.675c-.77.677-1.773 1.213-3.01 1.61-1.237.373-2.532.56-3.885.56zm16.373 0c-1.54 0-2.905-.373-4.095-1.12s-2.112-1.808-2.765-3.185-.98-2.987-.98-4.83.326-3.465.98-4.865c.676-1.423 1.598-2.52 2.765-3.29 1.19-.793 2.555-1.19 4.095-1.19 1.423 0 2.683.35 3.78 1.05s1.843 1.645 2.24 2.835l-.42.28v-3.71h5.215V153h-5.215v-3.64l.42.07c-.397 1.213-1.144 2.158-2.24 2.835s-2.357 1.015-3.78 1.015zm1.54-4.025c1.283 0 2.275-.443 2.975-1.33.723-.887 1.085-2.17 1.085-3.85s-.362-2.963-1.085-3.85c-.7-.91-1.692-1.365-2.975-1.365s-2.299.467-3.045 1.4c-.724.933-1.085 2.228-1.085 3.885s.35 2.928 1.05 3.815c.723.863 1.75 1.295 3.08 1.295zM317.945 153v-12.67l-.07-2.52a23.43 23.43 0 0 0-.21-2.555h4.97l.56 4.69-.56-.28c.28-1.587.945-2.788 1.995-3.605a5.85 5.85 0 0 1 3.64-1.225c.396 0 .746.035 1.05.105.326.07.606.152.84.245l-.035 4.83c-.864-.397-1.727-.595-2.59-.595-.957 0-1.75.175-2.38.525-.607.35-1.085.852-1.435 1.505-.327.63-.49 1.388-.49 2.275V153h-5.285zm29.623-1.89c-.863.677-1.913 1.213-3.15 1.61-1.236.373-2.485.56-3.745.56-1.983 0-3.698-.373-5.145-1.12-1.423-.747-2.52-1.808-3.29-3.185s-1.155-3.01-1.155-4.9c0-1.82.374-3.43 1.12-4.83s1.762-2.485 3.045-3.255c1.307-.793 2.824-1.19 4.55-1.19 1.657 0 3.092.373 4.305 1.12 1.214.723 2.147 1.762 2.8 3.115.654 1.33.98 2.917.98 4.76v.77h-12.145l.07-2.625h8.925l-1.365 1.085c.024-1.493-.268-2.613-.875-3.36-.583-.77-1.435-1.155-2.555-1.155-1.213 0-2.158.443-2.835 1.33-.653.863-.98 2.135-.98 3.815 0 1.983.385 3.418 1.155 4.305.794.887 1.995 1.33 3.605 1.33.934 0 1.855-.152 2.765-.455a9.2 9.2 0 0 0 2.52-1.295l1.4 3.57zm4.845-12.32l-2.03-1.645c.816-.84 1.4-1.622 1.75-2.345a5.46 5.46 0 0 0 .525-2.345l1.26 1.26h-4.025v-5.635h5.74v3.605c0 1.353-.245 2.578-.735 3.675-.467 1.097-1.295 2.24-2.485 3.43zm13.03 14.49c-3.383 0-6.055-.723-8.015-2.17l1.435-3.675c.934.677 1.972 1.202 3.115 1.575a12.13 12.13 0 0 0 3.5.525c.91 0 1.61-.14 2.1-.42.49-.303.735-.712.735-1.225 0-.443-.175-.782-.525-1.015-.35-.257-.968-.49-1.855-.7l-2.905-.7c-1.726-.35-2.998-.933-3.815-1.75-.793-.817-1.19-1.902-1.19-3.255 0-1.097.315-2.065.945-2.905.654-.863 1.552-1.54 2.695-2.03s2.474-.735 3.99-.735c1.284 0 2.52.198 3.71.595 1.19.373 2.275.91 3.255 1.61l-1.47 3.535c-.91-.63-1.843-1.108-2.8-1.435-.933-.327-1.843-.49-2.73-.49-.863 0-1.54.152-2.03.455s-.735.723-.735 1.26c0 .397.14.712.42.945.304.233.829.443 1.575.63l2.975.665c1.82.42 3.139 1.05 3.955 1.89s1.225 1.96 1.225 3.36c0 1.68-.676 3.01-2.03 3.99-1.33.98-3.173 1.47-5.53 1.47zM63.135 196v-25.76h5.285v12.075l-.42-.63c.373-1.167 1.097-2.1 2.17-2.8 1.097-.723 2.368-1.085 3.815-1.085 1.54 0 2.893.385 4.06 1.155 1.19.747 2.123 1.808 2.8 3.185s1.015 2.987 1.015 4.83c0 1.867-.338 3.5-1.015 4.9-.677 1.377-1.61 2.462-2.8 3.255-1.167.77-2.52 1.155-4.06 1.155-1.447 0-2.718-.338-3.815-1.015A4.98 4.98 0 0 1 68 192.43l.385-.77V196h-5.25zm9.345-3.745c1.283 0 2.275-.455 2.975-1.365.723-.91 1.085-2.217 1.085-3.92 0-1.633-.35-2.893-1.05-3.78s-1.703-1.33-3.01-1.33c-1.33 0-2.345.455-3.045 1.365s-1.05 2.182-1.05 3.815c0 1.703.35 2.998 1.05 3.885s1.715 1.33 3.045 1.33zm28.379 1.855c-.863.677-1.913 1.213-3.15 1.61-1.237.373-2.485.56-3.745.56-1.983 0-3.698-.373-5.145-1.12-1.423-.747-2.52-1.808-3.29-3.185s-1.155-3.01-1.155-4.9c0-1.82.373-3.43 1.12-4.83s1.762-2.485 3.045-3.255c1.307-.793 2.823-1.19 4.55-1.19 1.657 0 3.092.373 4.305 1.12 1.213.723 2.147 1.762 2.8 3.115.654 1.33.98 2.917.98 4.76v.77H89.029l.07-2.625h8.925l-1.365 1.085c.023-1.493-.268-2.613-.875-3.36-.583-.77-1.435-1.155-2.555-1.155-1.213 0-2.158.443-2.835 1.33-.653.863-.98 2.135-.98 3.815 0 1.983.385 3.418 1.155 4.305.793.887 1.995 1.33 3.605 1.33a8.7 8.7 0 0 0 2.765-.455 9.2 9.2 0 0 0 2.52-1.295l1.4 3.57zm10.458 2.17c-3.383 0-6.055-.723-8.015-2.17l1.435-3.675c.934.677 1.972 1.202 3.115 1.575a12.13 12.13 0 0 0 3.5.525c.91 0 1.61-.14 2.1-.42.49-.303.735-.712.735-1.225 0-.443-.175-.782-.525-1.015-.35-.257-.968-.49-1.855-.7l-2.905-.7c-1.726-.35-2.998-.933-3.815-1.75-.793-.817-1.19-1.902-1.19-3.255 0-1.097.315-2.065.945-2.905.654-.863 1.552-1.54 2.695-2.03s2.474-.735 3.99-.735c1.284 0 2.52.198 3.71.595 1.19.373 2.275.91 3.255 1.61l-1.47 3.535c-.91-.63-1.843-1.108-2.8-1.435-.933-.327-1.843-.49-2.73-.49-.863 0-1.54.152-2.03.455s-.735.723-.735 1.26c0 .397.14.712.42.945.304.233.829.443 1.575.63l2.975.665c1.82.42 3.139 1.05 3.955 1.89s1.225 1.96 1.225 3.36c0 1.68-.676 3.01-2.03 3.99-1.33.98-3.173 1.47-5.53 1.47zm8.646-14.07v-3.955h13.16v3.955h-13.16zm13.16 9.52v4.06a6.82 6.82 0 0 1-1.47.385 11.15 11.15 0 0 1-1.575.105c-2.193 0-3.873-.618-5.04-1.855-1.143-1.26-1.715-2.998-1.715-5.215v-15.12l5.285-1.715v16.73c0 .7.129 1.26.385 1.68s.595.723 1.015.91a3.74 3.74 0 0 0 1.365.245l.805-.035.945-.175zm19.381 4.55c-3.383 0-6.055-.723-8.015-2.17l1.435-3.675c.933.677 1.972 1.202 3.115 1.575 1.167.35 2.333.525 3.5.525.91 0 1.61-.14 2.1-.42.49-.303.735-.712.735-1.225 0-.443-.175-.782-.525-1.015-.35-.257-.968-.49-1.855-.7l-2.905-.7c-1.727-.35-2.998-.933-3.815-1.75-.793-.817-1.19-1.902-1.19-3.255 0-1.097.315-2.065.945-2.905.653-.863 1.552-1.54 2.695-2.03s2.473-.735 3.99-.735c1.283 0 2.52.198 3.71.595 1.19.373 2.275.91 3.255 1.61l-1.47 3.535c-.91-.63-1.843-1.108-2.8-1.435-.933-.327-1.843-.49-2.73-.49-.863 0-1.54.152-2.03.455s-.735.723-.735 1.26c0 .397.14.712.42.945.303.233.828.443 1.575.63l2.975.665c1.82.42 3.138 1.05 3.955 1.89s1.225 1.96 1.225 3.36c0 1.68-.677 3.01-2.03 3.99-1.33.98-3.173 1.47-5.53 1.47zm17.322 0c-2.217 0-3.874-.618-4.97-1.855s-1.645-3.103-1.645-5.6v-10.57h5.285v10.675c0 1.097.221 1.913.665 2.45.466.513 1.178.77 2.135.77 1.073 0 1.948-.373 2.625-1.12s1.015-1.738 1.015-2.975v-9.8h5.32V196h-5.145v-3.535l.455.035c-.514 1.237-1.272 2.182-2.275 2.835-.98.63-2.135.945-3.465.945zm14.715 7.28v-20.23l-.07-2.52a22.94 22.94 0 0 0-.21-2.555h4.97l.385 3.43h-.21a5.14 5.14 0 0 1 2.17-2.835c1.097-.7 2.369-1.05 3.815-1.05 1.54 0 2.894.397 4.06 1.19 1.19.77 2.124 1.867 2.8 3.29.677 1.4 1.015 3.022 1.015 4.865s-.338 3.453-1.015 4.83-1.61 2.438-2.8 3.185c-1.166.747-2.52 1.12-4.06 1.12-1.446 0-2.718-.338-3.815-1.015-1.073-.677-1.796-1.622-2.17-2.835l.42-.665v11.795h-5.285zm9.345-11.305c1.307 0 2.31-.432 3.01-1.295.7-.887 1.05-2.158 1.05-3.815s-.361-2.952-1.085-3.885c-.7-.933-1.691-1.4-2.975-1.4-1.33 0-2.345.455-3.045 1.365-.7.887-1.05 2.17-1.05 3.85s.35 2.963 1.05 3.85 1.715 1.33 3.045 1.33zm12.77 11.305v-20.23l-.07-2.52a23.43 23.43 0 0 0-.21-2.555h4.97l.385 3.43h-.21a5.13 5.13 0 0 1 2.17-2.835c1.096-.7 2.368-1.05 3.815-1.05 1.54 0 2.893.397 4.06 1.19 1.19.77 2.123 1.867 2.8 3.29.676 1.4 1.015 3.022 1.015 4.865s-.339 3.453-1.015 4.83-1.61 2.438-2.8 3.185c-1.167.747-2.52 1.12-4.06 1.12-1.447 0-2.719-.338-3.815-1.015a4.98 4.98 0 0 1-2.17-2.835l.42-.665v11.795h-5.285zm9.345-11.305c1.306 0 2.31-.432 3.01-1.295.7-.887 1.05-2.158 1.05-3.815s-.362-2.952-1.085-3.885c-.7-.933-1.692-1.4-2.975-1.4-1.33 0-2.345.455-3.045 1.365-.7.887-1.05 2.17-1.05 3.85s.35 2.963 1.05 3.85 1.715 1.33 3.045 1.33zM228.77 196v-25.76h5.285V196h-5.285zm25.214-1.89c-.863.677-1.913 1.213-3.15 1.61-1.236.373-2.485.56-3.745.56-1.983 0-3.698-.373-5.145-1.12-1.423-.747-2.52-1.808-3.29-3.185s-1.155-3.01-1.155-4.9c0-1.82.374-3.43 1.12-4.83s1.762-2.485 3.045-3.255c1.307-.793 2.824-1.19 4.55-1.19 1.657 0 3.092.373 4.305 1.12 1.214.723 2.147 1.762 2.8 3.115.654 1.33.98 2.917.98 4.76v.77h-12.145l.07-2.625h8.925l-1.365 1.085c.024-1.493-.268-2.613-.875-3.36-.583-.77-1.435-1.155-2.555-1.155-1.213 0-2.158.443-2.835 1.33-.653.863-.98 2.135-.98 3.815 0 1.983.385 3.418 1.155 4.305.794.887 1.995 1.33 3.605 1.33.934 0 1.855-.152 2.765-.455a9.2 9.2 0 0 0 2.52-1.295l1.4 3.57zm3.633 1.89v-12.67l-.07-2.52a22.94 22.94 0 0 0-.21-2.555h4.97l.385 3.465-.385-.14c.49-1.19 1.237-2.112 2.24-2.765 1.027-.677 2.252-1.015 3.675-1.015 1.61 0 2.882.42 3.815 1.26.957.817 1.587 2.065 1.89 3.745l-.84-.945c.514-1.213 1.33-2.193 2.45-2.94s2.392-1.12 3.815-1.12c2.03 0 3.535.618 4.515 1.855s1.47 3.103 1.47 5.6V196h-5.285v-10.57c0-1.213-.198-2.1-.595-2.66s-1.05-.84-1.96-.84c-1.05 0-1.878.385-2.485 1.155-.606.747-.91 1.797-.91 3.15V196h-5.285v-10.57c0-1.213-.198-2.1-.595-2.66s-1.038-.84-1.925-.84c-1.073 0-1.913.385-2.52 1.155-.583.747-.875 1.797-.875 3.15V196h-5.285zm47.5-1.89c-.863.677-1.913 1.213-3.15 1.61-1.237.373-2.485.56-3.745.56-1.983 0-3.698-.373-5.145-1.12-1.423-.747-2.52-1.808-3.29-3.185s-1.155-3.01-1.155-4.9c0-1.82.373-3.43 1.12-4.83s1.762-2.485 3.045-3.255c1.307-.793 2.823-1.19 4.55-1.19 1.657 0 3.092.373 4.305 1.12 1.213.723 2.147 1.762 2.8 3.115.653 1.33.98 2.917.98 4.76v.77h-12.145l.07-2.625h8.925l-1.365 1.085c.023-1.493-.268-2.613-.875-3.36-.583-.77-1.435-1.155-2.555-1.155-1.213 0-2.158.443-2.835 1.33-.653.863-.98 2.135-.98 3.815 0 1.983.385 3.418 1.155 4.305.793.887 1.995 1.33 3.605 1.33.933 0 1.855-.152 2.765-.455a9.2 9.2 0 0 0 2.52-1.295l1.4 3.57zm3.633 1.89v-12.67l-.07-2.52a22.94 22.94 0 0 0-.21-2.555h4.97l.385 3.465-.385-.035c.607-1.26 1.447-2.217 2.52-2.87 1.097-.677 2.357-1.015 3.78-1.015 4.177 0 6.265 2.485 6.265 7.455V196h-5.285v-10.5c0-1.26-.233-2.17-.7-2.73-.443-.56-1.155-.84-2.135-.84-1.166 0-2.1.373-2.8 1.12s-1.05 1.75-1.05 3.01V196h-5.285zm19.436-13.79v-3.955h13.16v3.955h-13.16zm13.16 9.52v4.06a6.82 6.82 0 0 1-1.47.385 11.15 11.15 0 0 1-1.575.105c-2.193 0-3.873-.618-5.04-1.855-1.143-1.26-1.715-2.998-1.715-5.215v-15.12l5.285-1.715v16.73c0 .7.128 1.26.385 1.68s.595.723 1.015.91a3.74 3.74 0 0 0 1.365.245l.805-.035.945-.175zm9.537 4.55c-3.383 0-6.055-.723-8.015-2.17l1.435-3.675c.933.677 1.972 1.202 3.115 1.575 1.167.35 2.333.525 3.5.525.91 0 1.61-.14 2.1-.42.49-.303.735-.712.735-1.225 0-.443-.175-.782-.525-1.015-.35-.257-.968-.49-1.855-.7l-2.905-.7c-1.727-.35-2.998-.933-3.815-1.75-.793-.817-1.19-1.902-1.19-3.255 0-1.097.315-2.065.945-2.905.653-.863 1.552-1.54 2.695-2.03s2.473-.735 3.99-.735c1.283 0 2.52.198 3.71.595 1.19.373 2.275.91 3.255 1.61l-1.47 3.535c-.91-.63-1.843-1.108-2.8-1.435-.933-.327-1.843-.49-2.73-.49-.863 0-1.54.152-2.03.455s-.735.723-.735 1.26c0 .397.14.712.42.945.303.233.828.443 1.575.63l2.975.665c1.82.42 3.138 1.05 3.955 1.89s1.225 1.96 1.225 3.36c0 1.68-.677 3.01-2.03 3.99-1.33.98-3.173 1.47-5.53 1.47zM68.024 245l-7.092-16.082h2.462l6.031 14.094h-.813l6.076-14.094h2.394L69.989 245h-1.965zm10.616 0v-11.384h2.281V245H78.64zm-.158-16.353h2.643v2.395h-2.643v-2.395zm9.758 16.511c-1.988 0-3.561-.482-4.721-1.445l.7-1.649c.602.467 1.235.813 1.897 1.039.678.211 1.408.316 2.191.316s1.378-.128 1.784-.384c.407-.271.61-.648.61-1.129 0-.407-.143-.723-.429-.949-.271-.241-.738-.444-1.4-.61l-1.92-.452c-.994-.21-1.754-.579-2.281-1.106-.512-.542-.768-1.212-.768-2.01 0-.678.188-1.273.565-1.785s.904-.911 1.581-1.197c.678-.301 1.468-.452 2.371-.452a6.85 6.85 0 0 1 2.304.384c.723.241 1.348.603 1.875 1.084l-.7 1.604c-.557-.437-1.129-.76-1.717-.971-.572-.226-1.16-.339-1.762-.339-.738 0-1.31.143-1.716.429-.407.271-.61.655-.61 1.152 0 .407.12.73.361.971.256.226.678.407 1.265.542l1.92.475c1.099.241 1.905.625 2.417 1.152s.768 1.204.768 2.032c0 1.009-.414 1.815-1.242 2.417-.813.587-1.927.881-3.343.881zm7.251-.158v-11.384h2.281V245h-2.281zm-.158-16.353h2.643v2.395h-2.643v-2.395zm4.247 6.731v-1.762h7.634v1.762h-7.634zm7.612 7.68v1.852c-.271.09-.542.15-.813.18a5.28 5.28 0 0 1-.881.068c-1.16 0-2.071-.324-2.733-.971-.648-.663-.971-1.634-.971-2.914v-10.502l2.281-.791v11.113c0 .557.083.993.248 1.31.166.301.392.519.678.655a2.66 2.66 0 0 0 .994.18c.21 0 .406-.015.587-.045a6.63 6.63 0 0 0 .61-.135zm8.128 1.942v-8.176l-.045-1.604a14.16 14.16 0 0 0-.135-1.604h2.168l.203 2.304-.226.091c.286-.844.761-1.499 1.423-1.965s1.453-.701 2.372-.701c1.084 0 1.927.271 2.529.813.618.528 1.017 1.348 1.198 2.462l-.543-.384a3.77 3.77 0 0 1 1.469-2.1c.737-.527 1.603-.791 2.597-.791 1.265 0 2.214.384 2.846 1.152.632.753.949 1.898.949 3.433V245h-2.282v-6.979c0-.979-.173-1.694-.519-2.146-.331-.452-.873-.678-1.626-.678-.874 0-1.566.302-2.078.904-.497.602-.746 1.423-.746 2.462V245h-2.281v-6.979c0-.979-.173-1.694-.519-2.146s-.889-.678-1.627-.678c-.888 0-1.588.302-2.1.904-.497.602-.746 1.423-.746 2.462V245h-2.281zm19.644 5.127l-.497-1.762c.692-.15 1.272-.338 1.739-.564.482-.211.881-.482 1.197-.813s.587-.761.813-1.288l.768-1.762.542-.79 3.93-9.532h2.281l-5.307 12.287c-.422.964-.904 1.725-1.446 2.282-.527.572-1.129 1.009-1.807 1.31s-1.415.512-2.213.632zm4.065-4.472l-5.172-12.039h2.371l3.885 9.532-1.084 2.507zm18.492-.497c-1.988 0-3.561-.482-4.721-1.445l.701-1.649c.602.467 1.234.813 1.897 1.039a7.33 7.33 0 0 0 2.191.316c.783 0 1.378-.128 1.784-.384.407-.271.61-.648.61-1.129 0-.407-.143-.723-.429-.949-.271-.241-.738-.444-1.401-.61l-1.919-.452c-.994-.21-1.755-.579-2.282-1.106-.512-.542-.768-1.212-.768-2.01 0-.678.189-1.273.565-1.785s.903-.911 1.581-1.197c.678-.301 1.468-.452 2.372-.452.813 0 1.581.128 2.303.384.723.241 1.348.603 1.875 1.084l-.7 1.604c-.557-.437-1.129-.76-1.717-.971-.572-.226-1.159-.339-1.761-.339-.738 0-1.31.143-1.717.429-.406.271-.61.655-.61 1.152 0 .407.121.73.362.971.256.226.677.407 1.264.542l1.92.475c1.1.241 1.905.625 2.417 1.152s.768 1.204.768 2.032c0 1.009-.414 1.815-1.242 2.417-.813.587-1.928.881-3.343.881zm5.628-9.78v-1.762h7.634v1.762h-7.634zm7.611 7.68v1.852c-.271.09-.542.15-.813.18a5.27 5.27 0 0 1-.881.068c-1.159 0-2.07-.324-2.733-.971-.647-.663-.971-1.634-.971-2.914v-10.502l2.281-.791v11.113c0 .557.083.993.249 1.31a1.5 1.5 0 0 0 .677.655c.302.12.633.18.994.18a3.6 3.6 0 0 0 .588-.045c.18-.03.384-.075.609-.135zm7.031 2.1c-1.129 0-2.115-.241-2.959-.723a4.91 4.91 0 0 1-1.92-2.032c-.451-.889-.677-1.943-.677-3.163 0-1.189.226-2.228.677-3.116s1.092-1.574 1.92-2.056c.844-.482 1.83-.723 2.959-.723 1.114 0 2.086.241 2.914.723.843.482 1.49 1.167 1.942 2.056.467.888.7 1.927.7 3.116 0 1.22-.233 2.274-.7 3.163-.452.873-1.099 1.55-1.942 2.032-.828.482-1.8.723-2.914.723zm0-1.807c1.024 0 1.815-.346 2.372-1.039.572-.692.858-1.716.858-3.072 0-1.31-.286-2.311-.858-3.004-.557-.707-1.348-1.061-2.372-1.061s-1.829.354-2.417 1.061c-.572.693-.858 1.694-.858 3.004 0 1.356.279 2.38.836 3.072.572.693 1.385 1.039 2.439 1.039zm8.2 1.649v-8.176l-.045-1.604a14.16 14.16 0 0 0-.135-1.604h2.168l.271 2.869-.271-.113c.196-.994.64-1.747 1.332-2.259a3.95 3.95 0 0 1 2.372-.768 3.47 3.47 0 0 1 .587.046 4.03 4.03 0 0 1 .497.112l-.045 2.078c-.407-.15-.851-.225-1.333-.225-.737 0-1.332.158-1.784.474a2.78 2.78 0 0 0-1.016 1.22c-.211.496-.317 1.031-.317 1.603V245h-2.281zm17.803-1.31c-.512.452-1.159.813-1.942 1.084-.783.256-1.581.384-2.394.384-1.205 0-2.244-.233-3.117-.7a4.76 4.76 0 0 1-2.011-2.033c-.466-.888-.7-1.942-.7-3.162 0-1.174.226-2.206.678-3.094.467-.889 1.107-1.581 1.92-2.078s1.754-.746 2.823-.746c1.024 0 1.905.226 2.643.678s1.302 1.099 1.694 1.942c.406.829.609 1.83.609 3.004v.384h-8.379l.022-1.355h7.025l-.655.813c.015-1.219-.226-2.153-.723-2.8s-1.227-.972-2.191-.972c-1.009 0-1.799.362-2.371 1.085-.573.707-.859 1.701-.859 2.981 0 1.43.309 2.499.926 3.207.618.693 1.521 1.039 2.711 1.039.647 0 1.272-.105 1.874-.316s1.175-.535 1.717-.971l.7 1.626zm7.307-8.312v-1.762h7.634v1.762h-7.634zm7.612 7.68v1.852c-.271.09-.543.15-.814.18-.271.046-.564.068-.88.068-1.16 0-2.071-.324-2.733-.971-.648-.663-.972-1.634-.972-2.914v-10.502l2.282-.791v11.113c0 .557.082.993.248 1.31.166.301.392.519.678.655.301.12.632.18.993.18a3.6 3.6 0 0 0 .588-.045 6.7 6.7 0 0 0 .61-.135zm7.03 2.1c-1.129 0-2.115-.241-2.959-.723a4.9 4.9 0 0 1-1.919-2.032c-.452-.889-.678-1.943-.678-3.163 0-1.189.226-2.228.678-3.116s1.091-1.574 1.919-2.056c.844-.482 1.83-.723 2.959-.723 1.115 0 2.086.241 2.914.723.843.482 1.491 1.167 1.942 2.056.467.888.701 1.927.701 3.116 0 1.22-.234 2.274-.701 3.163a4.86 4.86 0 0 1-1.942 2.032c-.828.482-1.799.723-2.914.723zm0-1.807c1.024 0 1.815-.346 2.372-1.039.572-.692.858-1.716.858-3.072 0-1.31-.286-2.311-.858-3.004-.557-.707-1.348-1.061-2.372-1.061s-1.829.354-2.416 1.061c-.573.693-.859 1.694-.859 3.004 0 1.356.279 2.38.836 3.072.572.693 1.385 1.039 2.439 1.039zm19.146 1.807c-1.129 0-2.116-.241-2.959-.723a4.91 4.91 0 0 1-1.92-2.032c-.452-.889-.677-1.943-.677-3.163 0-1.189.225-2.228.677-3.116s1.092-1.574 1.92-2.056c.843-.482 1.83-.723 2.959-.723 1.114 0 2.085.241 2.914.723.843.482 1.49 1.167 1.942 2.056.467.888.7 1.927.7 3.116 0 1.22-.233 2.274-.7 3.163-.452.873-1.099 1.55-1.942 2.032-.829.482-1.8.723-2.914.723zm0-1.807c1.024 0 1.814-.346 2.371-1.039.573-.692.859-1.716.859-3.072 0-1.31-.286-2.311-.859-3.004-.557-.707-1.347-1.061-2.371-1.061s-1.83.354-2.417 1.061c-.572.693-.858 1.694-.858 3.004 0 1.356.278 2.38.836 3.072.572.693 1.385 1.039 2.439 1.039zm8.2 1.649v-8.176l-.045-1.604a13.93 13.93 0 0 0-.136-1.604h2.169l.271 2.869-.271-.113c.195-.994.64-1.747 1.332-2.259a3.95 3.95 0 0 1 2.372-.768c.211 0 .406.015.587.046s.346.067.497.112l-.045 2.078c-.407-.15-.851-.225-1.333-.225-.738 0-1.332.158-1.784.474a2.78 2.78 0 0 0-1.017 1.22 4.07 4.07 0 0 0-.316 1.603V245h-2.281zm18.706 0h-2.258v-2.981l.271.316c-.256.903-.746 1.603-1.468 2.1-.708.482-1.566.723-2.575.723-.994 0-1.875-.241-2.643-.723-.753-.497-1.34-1.189-1.762-2.078-.421-.903-.632-1.957-.632-3.162 0-1.189.203-2.221.61-3.094.421-.873 1.009-1.551 1.762-2.033.768-.482 1.656-.723 2.665-.723s1.867.249 2.575.746c.722.497 1.212 1.189 1.468 2.078l-.294.271v-8.064h2.281V245zm-5.488-1.649c1.024 0 1.814-.354 2.371-1.061.573-.708.859-1.724.859-3.05 0-1.279-.286-2.273-.859-2.981-.557-.723-1.347-1.084-2.371-1.084-1.039 0-1.852.354-2.439 1.061-.573.693-.859 1.679-.859 2.959 0 1.325.286 2.349.859 3.072.587.723 1.4 1.084 2.439 1.084zm18.349.339c-.512.452-1.16.813-1.943 1.084-.783.256-1.581.384-2.394.384-1.205 0-2.244-.233-3.117-.7s-1.543-1.144-2.01-2.033-.7-1.942-.7-3.162c0-1.174.226-2.206.677-3.094.467-.889 1.107-1.581 1.92-2.078s1.754-.746 2.823-.746c1.024 0 1.905.226 2.643.678s1.303 1.099 1.694 1.942c.407.829.61 1.83.61 3.004v.384h-8.38l.023-1.355h7.024l-.655.813c.015-1.219-.226-2.153-.723-2.8s-1.227-.972-2.19-.972c-1.009 0-1.8.362-2.372 1.085-.572.707-.858 1.701-.858 2.981 0 1.43.308 2.499.926 3.207.617.693 1.521 1.039 2.71 1.039.648 0 1.273-.105 1.875-.316a5.79 5.79 0 0 0 1.716-.971l.701 1.626zm2.798 1.31v-8.176l-.045-1.604a13.93 13.93 0 0 0-.136-1.604h2.169l.271 2.869-.271-.113c.195-.994.64-1.747 1.332-2.259a3.95 3.95 0 0 1 2.372-.768c.211 0 .406.015.587.046s.346.067.497.112l-.045 2.078c-.407-.15-.851-.225-1.333-.225-.738 0-1.332.158-1.784.474a2.78 2.78 0 0 0-1.017 1.22 4.07 4.07 0 0 0-.316 1.603V245h-2.281zm13-9.622v-1.762h7.635v1.762h-7.635zm7.612 7.68v1.852c-.271.09-.542.15-.813.18a5.28 5.28 0 0 1-.881.068c-1.159 0-2.07-.324-2.733-.971-.647-.663-.971-1.634-.971-2.914v-10.502l2.281-.791v11.113c0 .557.083.993.248 1.31.166.301.392.519.678.655a2.66 2.66 0 0 0 .994.18 3.59 3.59 0 0 0 .587-.045 6.63 6.63 0 0 0 .61-.135zm7.031 2.1c-1.13 0-2.116-.241-2.959-.723a4.91 4.91 0 0 1-1.92-2.032c-.452-.889-.678-1.943-.678-3.163 0-1.189.226-2.228.678-3.116s1.092-1.574 1.92-2.056c.843-.482 1.829-.723 2.959-.723 1.114 0 2.085.241 2.913.723a4.83 4.83 0 0 1 1.943 2.056c.467.888.7 1.927.7 3.116 0 1.22-.233 2.274-.7 3.163-.452.873-1.099 1.55-1.943 2.032-.828.482-1.799.723-2.913.723zm0-1.807c1.024 0 1.814-.346 2.371-1.039.572-.692.859-1.716.859-3.072 0-1.31-.287-2.311-.859-3.004-.557-.707-1.347-1.061-2.371-1.061s-1.83.354-2.417 1.061c-.572.693-.858 1.694-.858 3.004 0 1.356.278 2.38.835 3.072.573.693 1.386 1.039 2.44 1.039zm8.2 6.528v-13.055l-.045-1.604a14.16 14.16 0 0 0-.136-1.604h2.168l.204 2.304-.158.249c.256-.904.737-1.596 1.445-2.078.723-.497 1.581-.746 2.575-.746s1.867.249 2.62.746c.768.497 1.363 1.197 1.784 2.1.437.889.655 1.928.655 3.117s-.218 2.229-.655 3.117c-.421.873-1.008 1.551-1.761 2.033-.753.467-1.634.7-2.643.7-.994 0-1.852-.241-2.575-.723-.708-.497-1.189-1.197-1.445-2.1l.248-.271v7.815h-2.281zm5.534-6.528c1.023 0 1.822-.346 2.394-1.039.572-.708.858-1.709.858-3.004s-.286-2.304-.858-3.026c-.572-.738-1.371-1.107-2.394-1.107-1.055 0-1.86.354-2.417 1.061s-.836 1.717-.836 3.027.279 2.319.836 3.027 1.362 1.061 2.417 1.061zm8.515-3.501v-1.852h6.573v1.852h-6.573zm20.582 10.029h-2.281v-7.815l.294.271c-.256.903-.745 1.603-1.468 2.1-.708.482-1.566.723-2.575.723s-1.897-.233-2.665-.7c-.753-.482-1.34-1.16-1.762-2.033-.407-.888-.61-1.927-.61-3.117s.211-2.228.633-3.117c.421-.903 1.008-1.603 1.761-2.1.768-.497 1.649-.746 2.643-.746 1.009 0 1.867.249 2.575.746.723.482 1.212 1.174 1.468 2.078l-.226-.249.271-2.304h2.123l-.135 1.604-.046 1.604v13.055zm-5.488-6.528c1.024 0 1.814-.354 2.372-1.061.572-.708.858-1.717.858-3.027s-.286-2.319-.858-3.027c-.558-.707-1.348-1.061-2.372-1.061-1.039 0-1.852.369-2.439 1.107-.573.722-.859 1.731-.859 3.026s.286 2.296.859 3.004c.587.693 1.4 1.039 2.439 1.039zm12.883 1.807c-1.371 0-2.402-.376-3.095-1.129-.692-.768-1.039-1.913-1.039-3.433v-6.98h2.282v6.957c0 .934.188 1.626.564 2.078.392.437.987.655 1.785.655.918 0 1.656-.301 2.213-.903.572-.603.858-1.401.858-2.395v-6.392h2.282V245h-2.214v-2.417l.271-.09c-.316.873-.82 1.536-1.513 1.988s-1.491.677-2.394.677zm13.551 0c-1.009 0-1.898-.233-2.665-.7-.753-.482-1.341-1.16-1.762-2.033-.407-.888-.61-1.927-.61-3.117s.211-2.228.632-3.117c.422-.903 1.009-1.603 1.762-2.1.768-.497 1.649-.746 2.643-.746 1.009 0 1.867.249 2.575.746.722.482 1.212 1.174 1.468 2.078l-.271.18v-2.733h2.258V245h-2.258v-2.778l.271.113c-.256.903-.746 1.603-1.468 2.1-.708.482-1.566.723-2.575.723zm.542-1.807c1.024 0 1.814-.354 2.371-1.061.573-.708.859-1.717.859-3.027s-.286-2.319-.859-3.027c-.557-.707-1.347-1.061-2.371-1.061-1.039 0-1.852.369-2.44 1.107-.572.722-.858 1.731-.858 3.026s.286 2.296.858 3.004c.588.693 1.401 1.039 2.44 1.039zm8.817 1.649v-16.624h2.281V245h-2.281zm5.603 0v-11.384h2.281V245h-2.281zm-.159-16.353h2.643v2.395h-2.643v-2.395zm4.248 6.731v-1.762h7.634v1.762h-7.634zm7.611 7.68v1.852c-.271.09-.542.15-.813.18a5.27 5.27 0 0 1-.881.068c-1.159 0-2.07-.324-2.733-.971-.647-.663-.971-1.634-.971-2.914v-10.502l2.281-.791v11.113c0 .557.083.993.249 1.31a1.5 1.5 0 0 0 .677.655c.302.12.633.18.994.18a3.6 3.6 0 0 0 .588-.045c.18-.03.384-.075.609-.135zm1.855 7.069l-.497-1.762c.693-.15 1.273-.338 1.739-.564.482-.211.881-.482 1.197-.813s.588-.761.814-1.288l.768-1.762.542-.79 3.93-9.532h2.281l-5.308 12.287c-.422.964-.903 1.725-1.445 2.282-.527.572-1.13 1.009-1.807 1.31s-1.416.512-2.214.632zm4.066-4.472l-5.173-12.039h2.372l3.885 9.532-1.084 2.507zM66.647 275.158c-1.988 0-3.561-.482-4.721-1.445l.7-1.649c.602.467 1.235.813 1.897 1.039.678.211 1.408.316 2.191.316s1.378-.128 1.784-.384c.407-.271.61-.648.61-1.129 0-.407-.143-.723-.429-.949-.271-.241-.738-.444-1.4-.61l-1.92-.452c-.994-.21-1.754-.579-2.281-1.106-.512-.542-.768-1.212-.768-2.01 0-.678.188-1.273.565-1.785s.903-.911 1.581-1.197c.678-.301 1.468-.452 2.372-.452a6.85 6.85 0 0 1 2.304.384c.723.241 1.348.603 1.875 1.084l-.7 1.604c-.557-.437-1.129-.76-1.716-.971-.572-.226-1.16-.339-1.762-.339-.738 0-1.31.143-1.717.429-.406.271-.61.655-.61 1.152 0 .407.12.73.361.971.256.226.678.407 1.265.542l1.92.475c1.099.241 1.905.625 2.417 1.152s.768 1.204.768 2.032c0 1.009-.414 1.815-1.242 2.417-.813.587-1.927.881-3.343.881zm11.317 0c-1.37 0-2.402-.376-3.094-1.129-.693-.768-1.039-1.913-1.039-3.433v-6.98h2.281v6.957c0 .934.188 1.626.565 2.078.391.437.986.655 1.784.655.918 0 1.656-.301 2.213-.903.572-.603.858-1.401.858-2.395v-6.392h2.281V275H81.6v-2.417l.271-.09c-.316.873-.821 1.536-1.513 1.988s-1.491.677-2.394.677zm9.147 4.721v-13.055l-.045-1.604c-.015-.542-.06-1.077-.135-1.604h2.168l.203 2.304-.158.249c.256-.904.738-1.596 1.446-2.078.723-.497 1.581-.746 2.575-.746s1.867.249 2.62.746c.768.497 1.363 1.197 1.784 2.1.437.889.655 1.928.655 3.117s-.218 2.229-.655 3.117c-.422.873-1.009 1.551-1.762 2.033-.753.467-1.634.7-2.643.7-.994 0-1.852-.241-2.575-.723-.708-.497-1.19-1.197-1.446-2.1l.249-.271v7.815H87.11zm5.534-6.528c1.024 0 1.822-.346 2.394-1.039.572-.708.858-1.709.858-3.004s-.286-2.304-.858-3.026c-.572-.738-1.37-1.107-2.394-1.107-1.054 0-1.86.354-2.417 1.061s-.836 1.717-.836 3.027.279 2.319.836 3.027 1.363 1.061 2.417 1.061zm8.23 6.528v-13.055l-.045-1.604a14.16 14.16 0 0 0-.136-1.604h2.168l.204 2.304-.158.249c.256-.904.737-1.596 1.445-2.078.723-.497 1.581-.746 2.575-.746s1.867.249 2.62.746c.768.497 1.363 1.197 1.784 2.1.437.889.655 1.928.655 3.117s-.218 2.229-.655 3.117c-.421.873-1.009 1.551-1.761 2.033-.753.467-1.634.7-2.643.7-.994 0-1.852-.241-2.575-.723-.708-.497-1.189-1.197-1.445-2.1l.248-.271v7.815h-2.281zm5.534-6.528c1.023 0 1.821-.346 2.394-1.039.572-.708.858-1.709.858-3.004s-.286-2.304-.858-3.026c-.573-.738-1.371-1.107-2.394-1.107-1.055 0-1.86.354-2.417 1.061s-.836 1.717-.836 3.027.279 2.319.836 3.027 1.362 1.061 2.417 1.061zm8.229 1.649v-16.624h2.282V275h-2.282zm15.134-1.31c-.511.452-1.159.813-1.942 1.084-.783.256-1.581.384-2.394.384-1.205 0-2.244-.233-3.117-.7s-1.543-1.144-2.01-2.033-.7-1.942-.7-3.162c0-1.174.225-2.206.677-3.094.467-.889 1.107-1.581 1.92-2.078s1.754-.746 2.823-.746c1.024 0 1.905.226 2.643.678s1.302 1.099 1.694 1.942c.406.829.61 1.83.61 3.004v.384h-8.38l.023-1.355h7.024l-.655.813c.015-1.219-.226-2.153-.723-2.8s-1.227-.972-2.191-.972c-1.008 0-1.799.362-2.371 1.085-.572.707-.858 1.701-.858 2.981 0 1.43.308 2.499.926 3.207.617.693 1.52 1.039 2.71 1.039a5.63 5.63 0 0 0 1.875-.316 5.79 5.79 0 0 0 1.716-.971l.7 1.626zm2.799 1.31v-8.176l-.045-1.604a14.16 14.16 0 0 0-.136-1.604h2.169l.203 2.304-.226.091c.286-.844.76-1.499 1.423-1.965s1.453-.701 2.371-.701c1.085 0 1.928.271 2.53.813.618.528 1.017 1.348 1.197 2.462l-.542-.384c.256-.888.746-1.588 1.468-2.1.738-.527 1.604-.791 2.598-.791 1.265 0 2.213.384 2.846 1.152.632.753.948 1.898.948 3.433V275h-2.281v-6.979c0-.979-.173-1.694-.519-2.146-.332-.452-.874-.678-1.627-.678-.873 0-1.566.302-2.078.904-.497.602-.745 1.423-.745 2.462V275h-2.281v-6.979c0-.979-.173-1.694-.52-2.146s-.888-.678-1.626-.678c-.888 0-1.589.302-2.101.904-.496.602-.745 1.423-.745 2.462V275h-2.281zm29.581-1.31c-.512.452-1.159.813-1.942 1.084-.783.256-1.581.384-2.394.384-1.205 0-2.244-.233-3.117-.7a4.75 4.75 0 0 1-2.01-2.033c-.467-.888-.701-1.942-.701-3.162 0-1.174.226-2.206.678-3.094.467-.889 1.107-1.581 1.92-2.078s1.754-.746 2.823-.746c1.024 0 1.905.226 2.643.678s1.302 1.099 1.694 1.942c.406.829.61 1.83.61 3.004v.384h-8.38l.023-1.355h7.024l-.655.813c.015-1.219-.226-2.153-.723-2.8s-1.227-.972-2.191-.972c-1.009 0-1.799.362-2.371 1.085-.572.707-.859 1.701-.859 2.981 0 1.43.309 2.499.927 3.207.617.693 1.52 1.039 2.71 1.039.647 0 1.272-.105 1.875-.316a5.79 5.79 0 0 0 1.716-.971l.7 1.626zm2.799 1.31v-8.176l-.045-1.604a14.16 14.16 0 0 0-.136-1.604h2.168l.204 2.304-.226.136c.331-.889.858-1.559 1.581-2.01.738-.467 1.581-.701 2.53-.701 2.725 0 4.088 1.529 4.088 4.585V275h-2.282v-6.979c0-.979-.195-1.694-.587-2.146s-.994-.678-1.807-.678c-.978 0-1.761.302-2.349.904-.572.602-.858 1.408-.858 2.417V275h-2.281zm11.875-9.622v-1.762h7.634v1.762h-7.634zm7.612 7.68v1.852c-.271.09-.542.15-.813.18a5.28 5.28 0 0 1-.881.068c-1.16 0-2.071-.324-2.733-.971-.648-.663-.971-1.634-.971-2.914v-10.502l2.281-.791v11.113c0 .557.083.993.248 1.31.166.301.392.519.678.655a2.66 2.66 0 0 0 .994.18 3.59 3.59 0 0 0 .587-.045 6.63 6.63 0 0 0 .61-.135zm6.104 2.1c-1.987 0-3.561-.482-4.72-1.445l.7-1.649c.602.467 1.235.813 1.897 1.039.678.211 1.408.316 2.191.316s1.378-.128 1.785-.384c.406-.271.609-.648.609-1.129 0-.407-.143-.723-.429-.949-.271-.241-.738-.444-1.4-.61l-1.92-.452c-.994-.21-1.754-.579-2.281-1.106-.512-.542-.768-1.212-.768-2.01 0-.678.188-1.273.565-1.785s.903-.911 1.581-1.197c.677-.301 1.468-.452 2.371-.452.813 0 1.581.128 2.304.384.723.241 1.348.603 1.875 1.084l-.7 1.604a6.18 6.18 0 0 0-1.717-.971c-.572-.226-1.16-.339-1.762-.339-.738 0-1.31.143-1.716.429-.407.271-.61.655-.61 1.152 0 .407.12.73.361.971.256.226.678.407 1.265.542l1.92.475c1.099.241 1.905.625 2.417 1.152s.768 1.204.768 2.032c0 1.009-.415 1.815-1.243 2.417-.813.587-1.927.881-3.343.881zm17.678 0c-1.009 0-1.897-.233-2.665-.7-.753-.482-1.341-1.16-1.762-2.033-.407-.888-.61-1.927-.61-3.117s.211-2.228.632-3.117c.422-.903 1.009-1.603 1.762-2.1.768-.497 1.649-.746 2.643-.746 1.009 0 1.867.249 2.575.746.722.482 1.212 1.174 1.468 2.078l-.271.18v-2.733h2.258V275h-2.258v-2.778l.271.113c-.256.903-.746 1.603-1.468 2.1-.708.482-1.566.723-2.575.723zm.542-1.807c1.024 0 1.814-.354 2.371-1.061.573-.708.859-1.717.859-3.027s-.286-2.319-.859-3.027c-.557-.707-1.347-1.061-2.371-1.061-1.039 0-1.852.369-2.439 1.107-.573.722-.859 1.731-.859 3.026s.286 2.296.859 3.004c.587.693 1.4 1.039 2.439 1.039zm8.817 1.649v-8.176l-.045-1.604a13.93 13.93 0 0 0-.136-1.604h2.169l.203 2.304-.226.136c.331-.889.858-1.559 1.581-2.01.738-.467 1.581-.701 2.53-.701 2.725 0 4.088 1.529 4.088 4.585V275h-2.281v-6.979c0-.979-.196-1.694-.588-2.146s-.993-.678-1.806-.678c-.979 0-1.762.302-2.349.904-.573.602-.859 1.408-.859 2.417V275h-2.281zm23.824 0h-2.259v-2.981l.271.316c-.256.903-.745 1.603-1.468 2.1-.708.482-1.566.723-2.575.723-.994 0-1.875-.241-2.643-.723-.752-.497-1.34-1.189-1.761-2.078-.422-.903-.633-1.957-.633-3.162 0-1.189.204-2.221.61-3.094.422-.873 1.009-1.551 1.762-2.033.768-.482 1.656-.723 2.665-.723s1.867.249 2.575.746c.723.497 1.212 1.189 1.468 2.078l-.294.271v-8.064h2.282V275zm-5.489-1.649c1.024 0 1.815-.354 2.372-1.061.572-.708.858-1.724.858-3.05 0-1.279-.286-2.273-.858-2.981-.557-.723-1.348-1.084-2.372-1.084-1.039 0-1.852.354-2.439 1.061-.572.693-.858 1.679-.858 2.959 0 1.325.286 2.349.858 3.072.587.723 1.4 1.084 2.439 1.084zM253.869 275l-4.337-11.384h2.372l3.365 9.487h-.564l3.433-9.487h1.807l3.41 9.487h-.564l3.41-9.487h2.236L264.101 275h-2.078l-3.637-9.757h1.152L255.947 275h-2.078zm26.023-1.31c-.512.452-1.159.813-1.942 1.084-.783.256-1.581.384-2.394.384-1.205 0-2.244-.233-3.117-.7a4.75 4.75 0 0 1-2.01-2.033c-.467-.888-.701-1.942-.701-3.162 0-1.174.226-2.206.678-3.094.467-.889 1.107-1.581 1.92-2.078s1.754-.746 2.823-.746c1.024 0 1.905.226 2.643.678s1.302 1.099 1.694 1.942c.406.829.61 1.83.61 3.004v.384h-8.38l.023-1.355h7.024l-.655.813c.015-1.219-.226-2.153-.723-2.8s-1.227-.972-2.191-.972c-1.009 0-1.799.362-2.371 1.085-.573.707-.859 1.701-.859 2.981 0 1.43.309 2.499.926 3.207.618.693 1.521 1.039 2.711 1.039.647 0 1.272-.105 1.874-.316s1.175-.535 1.717-.971l.7 1.626zm2.799 1.31v-16.624h2.281V275h-2.281zm5.602 0v-16.624h2.281V275h-2.281zm5.603 0v-8.176l-.045-1.604c-.016-.542-.061-1.077-.136-1.604h2.168l.204 2.304-.226.136c.331-.889.858-1.559 1.581-2.01.738-.467 1.581-.701 2.529-.701 2.726 0 4.089 1.529 4.089 4.585V275h-2.282v-6.979c0-.979-.195-1.694-.587-2.146s-.994-.678-1.807-.678c-.979 0-1.762.302-2.349.904-.572.602-.858 1.408-.858 2.417V275h-2.281zm22.92-1.31c-.512.452-1.16.813-1.943 1.084-.783.256-1.581.384-2.394.384-1.204 0-2.243-.233-3.117-.7s-1.543-1.144-2.01-2.033-.7-1.942-.7-3.162c0-1.174.226-2.206.678-3.094.466-.889 1.106-1.581 1.919-2.078s1.755-.746 2.824-.746c1.024 0 1.905.226 2.642.678s1.303 1.099 1.694 1.942c.407.829.61 1.83.61 3.004v.384h-8.379l.022-1.355h7.025l-.655.813c.015-1.219-.226-2.153-.723-2.8s-1.227-.972-2.191-.972c-1.009 0-1.8.362-2.372 1.085-.572.707-.858 1.701-.858 2.981 0 1.43.309 2.499.926 3.207.617.693 1.521 1.039 2.71 1.039.648 0 1.273-.105 1.875-.316s1.175-.535 1.717-.971l.7 1.626zm6.796 1.468c-1.988 0-3.561-.482-4.72-1.445l.7-1.649c.602.467 1.234.813 1.897 1.039.678.211 1.408.316 2.191.316s1.378-.128 1.784-.384c.407-.271.61-.648.61-1.129 0-.407-.143-.723-.429-.949-.271-.241-.738-.444-1.4-.61l-1.92-.452c-.994-.21-1.755-.579-2.282-1.106-.512-.542-.767-1.212-.767-2.01 0-.678.188-1.273.564-1.785s.904-.911 1.581-1.197c.678-.301 1.468-.452 2.372-.452.813 0 1.581.128 2.304.384.722.241 1.347.603 1.874 1.084l-.7 1.604c-.557-.437-1.129-.76-1.716-.971a4.76 4.76 0 0 0-1.762-.339c-.738 0-1.31.143-1.717.429-.406.271-.61.655-.61 1.152 0 .407.121.73.362.971.256.226.677.407 1.265.542l1.919.475c1.1.241 1.905.625 2.417 1.152s.768 1.204.768 2.032c0 1.009-.414 1.815-1.242 2.417-.813.587-1.927.881-3.343.881zm11.249 0c-1.987 0-3.561-.482-4.72-1.445l.7-1.649c.602.467 1.235.813 1.897 1.039.678.211 1.408.316 2.191.316s1.378-.128 1.784-.384c.407-.271.61-.648.61-1.129 0-.407-.143-.723-.429-.949-.271-.241-.738-.444-1.4-.61l-1.92-.452c-.994-.21-1.754-.579-2.281-1.106-.512-.542-.768-1.212-.768-2.01 0-.678.188-1.273.564-1.785s.904-.911 1.581-1.197c.678-.301 1.468-.452 2.372-.452.813 0 1.581.128 2.304.384.723.241 1.347.603 1.874 1.084l-.7 1.604c-.557-.437-1.129-.76-1.716-.971-.572-.226-1.16-.339-1.762-.339-.738 0-1.31.143-1.717.429-.406.271-.609.655-.609 1.152 0 .407.12.73.361.971.256.226.678.407 1.265.542l1.92.475c1.099.241 1.904.625 2.416 1.152s.768 1.204.768 2.032c0 1.009-.414 1.815-1.242 2.417-.813.587-1.927.881-3.343.881zM62.649 308.879v-13.055l-.045-1.604a14.09 14.09 0 0 0-.136-1.604h2.168l.203 2.304-.158.249c.256-.904.738-1.596 1.445-2.078.723-.497 1.581-.746 2.575-.746s1.867.249 2.62.746c.768.497 1.363 1.197 1.784 2.1.437.889.655 1.928.655 3.117s-.218 2.229-.655 3.117c-.422.873-1.009 1.551-1.762 2.033-.753.467-1.634.7-2.643.7-.994 0-1.852-.241-2.575-.723-.708-.497-1.189-1.197-1.445-2.1l.248-.271v7.815h-2.281zm5.534-6.528c1.024 0 1.822-.346 2.394-1.039.572-.708.858-1.709.858-3.004s-.286-2.304-.858-3.026c-.572-.738-1.37-1.107-2.394-1.107-1.054 0-1.86.354-2.417 1.061s-.836 1.717-.836 3.027.279 2.319.836 3.027 1.363 1.061 2.417 1.061zm8.23 1.649v-8.176l-.045-1.604c-.015-.542-.06-1.077-.135-1.604H78.4l.271 2.869-.271-.113c.196-.994.64-1.747 1.333-2.259a3.95 3.95 0 0 1 2.372-.768 3.48 3.48 0 0 1 .587.046c.181.03.346.067.497.112l-.045 2.078c-.406-.15-.851-.225-1.333-.225-.738 0-1.333.158-1.784.474a2.78 2.78 0 0 0-1.016 1.22c-.211.496-.316 1.031-.316 1.603V304h-2.281zm13.195.158c-1.129 0-2.116-.241-2.959-.723-.828-.482-1.468-1.159-1.92-2.032-.452-.889-.678-1.943-.678-3.163 0-1.189.226-2.228.678-3.116s1.092-1.574 1.92-2.056c.843-.482 1.829-.723 2.959-.723 1.114 0 2.086.241 2.914.723.843.482 1.491 1.167 1.942 2.056.467.888.7 1.927.7 3.116 0 1.22-.233 2.274-.7 3.163-.452.873-1.099 1.55-1.942 2.032-.828.482-1.799.723-2.914.723zm0-1.807c1.024 0 1.815-.346 2.372-1.039.572-.692.858-1.716.858-3.072 0-1.31-.286-2.311-.858-3.004-.557-.707-1.348-1.061-2.372-1.061s-1.829.354-2.417 1.061c-.572.693-.858 1.694-.858 3.004 0 1.356.279 2.38.836 3.072.572.693 1.385 1.039 2.439 1.039zM108.243 304h-2.259v-2.981l.271.316c-.256.903-.745 1.603-1.468 2.1-.708.482-1.566.723-2.575.723-.994 0-1.874-.241-2.642-.723-.753-.497-1.34-1.189-1.762-2.078-.422-.903-.633-1.957-.633-3.162 0-1.189.203-2.221.61-3.094.422-.873 1.009-1.551 1.762-2.033.768-.482 1.656-.723 2.665-.723s1.867.249 2.575.746c.723.497 1.212 1.189 1.468 2.078l-.293.271v-8.064h2.281V304zm-5.489-1.649c1.024 0 1.815-.354 2.372-1.061.572-.708.858-1.724.858-3.05 0-1.279-.286-2.273-.858-2.981-.557-.723-1.348-1.084-2.372-1.084-1.039 0-1.852.354-2.439 1.061-.572.693-.858 1.679-.858 2.959 0 1.325.286 2.349.858 3.072.587.723 1.4 1.084 2.439 1.084zm12.883 1.807c-1.37 0-2.402-.376-3.094-1.129-.693-.768-1.039-1.913-1.039-3.433v-6.98h2.281v6.957c0 .934.188 1.626.565 2.078.391.437.986.655 1.784.655.919 0 1.656-.301 2.213-.903.573-.603.859-1.401.859-2.395v-6.392h2.281V304h-2.213v-2.417l.271-.09c-.317.873-.821 1.536-1.514 1.988s-1.49.677-2.394.677zm14.093 0c-1.144 0-2.138-.241-2.981-.723a4.91 4.91 0 0 1-1.92-2.032c-.452-.874-.678-1.905-.678-3.095s.234-2.228.7-3.117c.467-.903 1.122-1.603 1.966-2.1.858-.497 1.867-.746 3.026-.746.783 0 1.544.128 2.281.384s1.34.618 1.807 1.084l-.7 1.649c-.527-.421-1.061-.738-1.604-.948-.527-.211-1.069-.317-1.626-.317-1.084 0-1.942.354-2.575 1.062-.617.708-.926 1.717-.926 3.027s.309 2.311.926 3.004 1.476 1.039 2.575 1.039c.542 0 1.084-.106 1.626-.317s1.077-.527 1.604-.948l.7 1.649c-.482.451-1.099.805-1.852 1.061s-1.536.384-2.349.384zm4.856-9.78v-1.762h7.634v1.762h-7.634zm7.611 7.68v1.852c-.271.09-.542.15-.813.18a5.27 5.27 0 0 1-.881.068c-1.159 0-2.07-.324-2.733-.971-.647-.663-.971-1.634-.971-2.914v-10.502l2.281-.791v11.113c0 .557.083.993.249 1.31.166.301.391.519.678.655.301.12.632.18.993.18a3.6 3.6 0 0 0 .588-.045c.18-.03.384-.075.609-.135zm6.105 2.1c-1.988 0-3.561-.482-4.72-1.445l.7-1.649c.602.467 1.234.813 1.897 1.039.678.211 1.408.316 2.191.316s1.378-.128 1.784-.384c.407-.271.61-.648.61-1.129 0-.407-.143-.723-.429-.949-.271-.241-.738-.444-1.4-.61l-1.92-.452c-.994-.21-1.755-.579-2.282-1.106-.512-.542-.768-1.212-.768-2.01 0-.678.189-1.273.565-1.785s.904-.911 1.581-1.197c.678-.301 1.468-.452 2.372-.452.813 0 1.581.128 2.304.384.722.241 1.347.603 1.874 1.084l-.7 1.604c-.557-.437-1.129-.76-1.716-.971a4.76 4.76 0 0 0-1.762-.339c-.738 0-1.31.143-1.717.429-.406.271-.61.655-.61 1.152 0 .407.121.73.362.971.256.226.677.407 1.265.542l1.919.475c1.1.241 1.905.625 2.417 1.152s.768 1.204.768 2.032c0 1.009-.414 1.815-1.242 2.417-.813.587-1.927.881-3.343.881zm11.624-5.534v-1.423h11.406v1.423h-11.406zM189.435 304h-2.259v-2.981l.271.316c-.255.903-.745 1.603-1.468 2.1-.707.482-1.566.723-2.574.723-.994 0-1.875-.241-2.643-.723-.753-.497-1.34-1.189-1.762-2.078-.421-.903-.632-1.957-.632-3.162 0-1.189.203-2.221.61-3.094.421-.873 1.008-1.551 1.761-2.033.768-.482 1.657-.723 2.666-.723s1.867.249 2.574.746c.723.497 1.213 1.189 1.468 2.078l-.293.271v-8.064h2.281V304zm-5.488-1.649c1.024 0 1.814-.354 2.371-1.061.572-.708.858-1.724.858-3.05 0-1.279-.286-2.273-.858-2.981-.557-.723-1.347-1.084-2.371-1.084-1.039 0-1.853.354-2.44 1.061-.572.693-.858 1.679-.858 2.959 0 1.325.286 2.349.858 3.072.587.723 1.401 1.084 2.44 1.084zm18.348.339c-.512.452-1.159.813-1.942 1.084-.783.256-1.581.384-2.394.384-1.205 0-2.244-.233-3.117-.7a4.75 4.75 0 0 1-2.01-2.033c-.467-.888-.701-1.942-.701-3.162 0-1.174.226-2.206.678-3.094.467-.889 1.107-1.581 1.92-2.078s1.754-.746 2.823-.746c1.024 0 1.905.226 2.643.678s1.302 1.099 1.694 1.942c.406.829.61 1.83.61 3.004v.384h-8.38l.023-1.355h7.024l-.655.813c.015-1.219-.226-2.153-.723-2.8s-1.227-.972-2.191-.972c-1.009 0-1.799.362-2.371 1.085-.572.707-.859 1.701-.859 2.981 0 1.43.309 2.499.926 3.207.618.693 1.521 1.039 2.711 1.039.647 0 1.272-.105 1.875-.316a5.79 5.79 0 0 0 1.716-.971l.7 1.626zm2.799 1.31v-16.624h2.281V304h-2.281zm5.602 0v-11.384h2.281V304h-2.281zm-.158-16.353h2.643v2.395h-2.643v-2.395zM219.664 304l-4.879-11.361h2.372l3.885 9.509h-.587l3.93-9.509h2.281L221.719 304h-2.055zm18.143-1.31c-.512.452-1.159.813-1.942 1.084-.783.256-1.581.384-2.394.384-1.205 0-2.244-.233-3.117-.7a4.75 4.75 0 0 1-2.01-2.033c-.467-.888-.701-1.942-.701-3.162 0-1.174.226-2.206.678-3.094.467-.889 1.107-1.581 1.92-2.078s1.754-.746 2.823-.746c1.024 0 1.905.226 2.643.678s1.302 1.099 1.694 1.942c.406.829.61 1.83.61 3.004v.384h-8.38l.023-1.355h7.024l-.655.813c.015-1.219-.226-2.153-.723-2.8s-1.227-.972-2.191-.972c-1.009 0-1.799.362-2.371 1.085-.573.707-.859 1.701-.859 2.981 0 1.43.309 2.499.926 3.207.618.693 1.521 1.039 2.711 1.039.647 0 1.272-.105 1.874-.316s1.175-.535 1.717-.971l.7 1.626zm2.799 1.31v-8.176l-.045-1.604c-.016-.542-.061-1.077-.136-1.604h2.168l.271 2.869-.271-.113c.196-.994.64-1.747 1.333-2.259a3.95 3.95 0 0 1 2.371-.768 3.49 3.49 0 0 1 .588.046c.18.03.346.067.497.112l-.046 2.078c-.406-.15-.85-.225-1.332-.225-.738 0-1.333.158-1.784.474a2.78 2.78 0 0 0-1.017 1.22c-.211.496-.316 1.031-.316 1.603V304h-2.281zm17.803-1.31c-.512.452-1.16.813-1.943 1.084-.783.256-1.581.384-2.394.384-1.205 0-2.244-.233-3.117-.7s-1.543-1.144-2.01-2.033-.7-1.942-.7-3.162c0-1.174.226-2.206.677-3.094.467-.889 1.107-1.581 1.92-2.078s1.754-.746 2.823-.746c1.024 0 1.905.226 2.643.678s1.303 1.099 1.694 1.942c.407.829.61 1.83.61 3.004v.384h-8.38l.023-1.355h7.024l-.655.813c.015-1.219-.226-2.153-.722-2.8s-1.228-.972-2.191-.972c-1.009 0-1.8.362-2.372 1.085-.572.707-.858 1.701-.858 2.981 0 1.43.308 2.499.926 3.207.617.693 1.521 1.039 2.71 1.039.648 0 1.273-.105 1.875-.316a5.79 5.79 0 0 0 1.716-.971l.701 1.626zm13.233 1.31h-2.259v-2.981l.271.316c-.256.903-.745 1.603-1.468 2.1-.707.482-1.566.723-2.575.723-.993 0-1.874-.241-2.642-.723-.753-.497-1.34-1.189-1.762-2.078-.422-.903-.632-1.957-.632-3.162 0-1.189.203-2.221.609-3.094.422-.873 1.009-1.551 1.762-2.033.768-.482 1.657-.723 2.665-.723s1.868.249 2.575.746c.723.497 1.212 1.189 1.468 2.078l-.293.271v-8.064h2.281V304zm-5.489-1.649c1.024 0 1.815-.354 2.372-1.061.572-.708.858-1.724.858-3.05 0-1.279-.286-2.273-.858-2.981-.557-.723-1.348-1.084-2.372-1.084-1.038 0-1.852.354-2.439 1.061-.572.693-.858 1.679-.858 2.959 0 1.325.286 2.349.858 3.072.587.723 1.401 1.084 2.439 1.084zm13.326-7.973v-1.762h7.634v1.762h-7.634zm7.612 7.68v1.852c-.271.09-.542.15-.813.18-.272.046-.565.068-.881.068-1.16 0-2.071-.324-2.733-.971-.648-.663-.972-1.634-.972-2.914v-10.502l2.282-.791v11.113c0 .557.083.993.248 1.31.166.301.392.519.678.655a2.66 2.66 0 0 0 .994.18c.21 0 .406-.015.587-.045a6.7 6.7 0 0 0 .61-.135zm7.03 2.1c-1.129 0-2.115-.241-2.958-.723-.829-.482-1.469-1.159-1.92-2.032-.452-.889-.678-1.943-.678-3.163 0-1.189.226-2.228.678-3.116s1.091-1.574 1.92-2.056c.843-.482 1.829-.723 2.958-.723 1.115 0 2.086.241 2.914.723.843.482 1.491 1.167 1.942 2.056.467.888.701 1.927.701 3.116 0 1.22-.234 2.274-.701 3.163a4.86 4.86 0 0 1-1.942 2.032c-.828.482-1.799.723-2.914.723zm0-1.807c1.024 0 1.815-.346 2.372-1.039.572-.692.858-1.716.858-3.072 0-1.31-.286-2.311-.858-3.004-.557-.707-1.348-1.061-2.372-1.061s-1.829.354-2.416 1.061c-.573.693-.859 1.694-.859 3.004 0 1.356.279 2.38.836 3.072.572.693 1.385 1.039 2.439 1.039zm13.816 6.776l-.497-1.762c.692-.15 1.272-.338 1.739-.564.482-.211.881-.482 1.197-.813s.587-.761.813-1.288l.768-1.762.542-.79 3.93-9.532h2.281l-5.308 12.287c-.421.964-.903 1.725-1.445 2.282-.527.572-1.129 1.009-1.807 1.31s-1.415.512-2.213.632zm4.065-4.472l-5.172-12.039h2.371l3.885 9.532-1.084 2.507zm13.242-.497c-1.129 0-2.116-.241-2.959-.723a4.91 4.91 0 0 1-1.92-2.032c-.451-.889-.677-1.943-.677-3.163 0-1.189.226-2.228.677-3.116s1.092-1.574 1.92-2.056c.843-.482 1.83-.723 2.959-.723 1.114 0 2.085.241 2.914.723.843.482 1.49 1.167 1.942 2.056.467.888.7 1.927.7 3.116 0 1.22-.233 2.274-.7 3.163-.452.873-1.099 1.55-1.942 2.032-.829.482-1.8.723-2.914.723zm0-1.807c1.024 0 1.814-.346 2.372-1.039.572-.692.858-1.716.858-3.072 0-1.31-.286-2.311-.858-3.004-.558-.707-1.348-1.061-2.372-1.061s-1.83.354-2.417 1.061c-.572.693-.858 1.694-.858 3.004 0 1.356.279 2.38.836 3.072.572.693 1.385 1.039 2.439 1.039zm12.266 1.807c-1.371 0-2.402-.376-3.095-1.129-.692-.768-1.039-1.913-1.039-3.433v-6.98h2.282v6.957c0 .934.188 1.626.564 2.078.392.437.987.655 1.785.655.918 0 1.656-.301 2.213-.903.572-.603.858-1.401.858-2.395v-6.392h2.282V304h-2.214v-2.417l.271-.09c-.316.873-.82 1.536-1.513 1.988s-1.491.677-2.394.677zm9.146-.158v-8.176l-.045-1.604a14.16 14.16 0 0 0-.135-1.604h2.168l.271 2.869-.271-.113c.196-.994.64-1.747 1.333-2.259.707-.512 1.498-.768 2.371-.768a3.47 3.47 0 0 1 .587.046 4.03 4.03 0 0 1 .497.112l-.045 2.078a3.82 3.82 0 0 0-1.332-.225c-.738 0-1.333.158-1.785.474a2.78 2.78 0 0 0-1.016 1.22c-.211.496-.316 1.031-.316 1.603V304h-2.282zm24.949 0h-2.259v-2.981l.271.316c-.256.903-.745 1.603-1.468 2.1-.708.482-1.566.723-2.575.723-.994 0-1.874-.241-2.642-.723-.753-.497-1.34-1.189-1.762-2.078-.422-.903-.632-1.957-.632-3.162 0-1.189.203-2.221.609-3.094.422-.873 1.009-1.551 1.762-2.033.768-.482 1.656-.723 2.665-.723s1.867.249 2.575.746c.723.497 1.212 1.189 1.468 2.078l-.293.271v-8.064h2.281V304zm-5.489-1.649c1.024 0 1.815-.354 2.372-1.061.572-.708.858-1.724.858-3.05 0-1.279-.286-2.273-.858-2.981-.557-.723-1.348-1.084-2.372-1.084-1.039 0-1.852.354-2.439 1.061-.572.693-.858 1.679-.858 2.959 0 1.325.286 2.349.858 3.072.587.723 1.4 1.084 2.439 1.084zm13.741 1.807c-1.129 0-2.115-.241-2.958-.723-.829-.482-1.469-1.159-1.92-2.032-.452-.889-.678-1.943-.678-3.163 0-1.189.226-2.228.678-3.116s1.091-1.574 1.92-2.056c.843-.482 1.829-.723 2.958-.723 1.115 0 2.086.241 2.914.723.843.482 1.491 1.167 1.943 2.056.466.888.7 1.927.7 3.116 0 1.22-.234 2.274-.7 3.163a4.87 4.87 0 0 1-1.943 2.032c-.828.482-1.799.723-2.914.723zm0-1.807c1.024 0 1.815-.346 2.372-1.039.572-.692.858-1.716.858-3.072 0-1.31-.286-2.311-.858-3.004-.557-.707-1.348-1.061-2.372-1.061s-1.829.354-2.416 1.061c-.573.693-.859 1.694-.859 3.004 0 1.356.279 2.38.836 3.072.572.693 1.385 1.039 2.439 1.039zm13.124 1.807c-1.129 0-2.115-.241-2.958-.723-.829-.482-1.469-1.159-1.92-2.032-.452-.889-.678-1.943-.678-3.163 0-1.189.226-2.228.678-3.116s1.091-1.574 1.92-2.056c.843-.482 1.829-.723 2.958-.723 1.115 0 2.086.241 2.914.723.843.482 1.491 1.167 1.943 2.056.466.888.7 1.927.7 3.116 0 1.22-.234 2.274-.7 3.163a4.87 4.87 0 0 1-1.943 2.032c-.828.482-1.799.723-2.914.723zm0-1.807c1.024 0 1.815-.346 2.372-1.039.572-.692.858-1.716.858-3.072 0-1.31-.286-2.311-.858-3.004-.557-.707-1.348-1.061-2.372-1.061s-1.829.354-2.416 1.061c-.573.693-.859 1.694-.859 3.004 0 1.356.279 2.38.836 3.072.572.693 1.385 1.039 2.439 1.039zm8.201 1.649v-8.176l-.046-1.604a14.16 14.16 0 0 0-.135-1.604h2.168l.271 2.869-.271-.113c.196-.994.64-1.747 1.333-2.259.707-.512 1.498-.768 2.371-.768a3.49 3.49 0 0 1 .588.046c.18.03.346.067.497.112l-.046 2.078c-.406-.15-.85-.225-1.332-.225-.738 0-1.333.158-1.785.474-.451.301-.79.708-1.016 1.22-.211.496-.316 1.031-.316 1.603V304h-2.281zm7.669-2.71h2.71V304h-2.71v-2.71z" fill="#36485c"/><rect x="61" y="344.769" width="207.796" height="51.497" rx="9.035" fill="#275e42"/><path d="M98.36 377.741L91.2 361.66h3.049l5.783 13.506h-.926l5.849-13.506h2.937l-7.138 16.081H98.36zm10.835 0v-11.406h2.823v11.406h-2.823zm-.136-16.578h3.14v2.778h-3.14v-2.778zm10.204 16.736c-2.078 0-3.719-.474-4.924-1.423l.791-1.987a6.61 6.61 0 0 0 1.965 1.016c.708.226 1.446.339 2.213.339.693 0 1.22-.113 1.582-.339a1.06 1.06 0 0 0 .542-.948c0-.347-.128-.618-.384-.814-.256-.21-.693-.391-1.31-.542l-1.898-.429c-1.039-.226-1.822-.602-2.349-1.129-.512-.542-.768-1.227-.768-2.056 0-.692.196-1.302.588-1.829.391-.542.941-.964 1.648-1.265s1.529-.452 2.462-.452c.813 0 1.596.128 2.349.384.753.241 1.408.595 1.965 1.062l-.813 1.942c-.572-.436-1.159-.76-1.761-.971-.588-.211-1.175-.316-1.762-.316-.648 0-1.152.12-1.514.361s-.542.573-.542.994c0 .331.106.595.317.791.226.195.609.354 1.152.474l1.919.474c1.13.241 1.95.633 2.462 1.175.527.527.791 1.227.791 2.1 0 1.039-.422 1.867-1.265 2.485-.843.602-1.995.903-3.456.903zm7.114-.158v-11.406h2.824v11.406h-2.824zm-.135-16.578h3.139v2.778h-3.139v-2.778zm4.602 7.295v-2.123h8.041v2.123h-8.041zm8.041 6.934v2.236a3.92 3.92 0 0 1-.903.204 5.97 5.97 0 0 1-.926.067c-1.28 0-2.274-.361-2.982-1.084-.692-.723-1.039-1.762-1.039-3.117v-10.141l2.824-.949v10.955c0 .512.082.918.248 1.219.166.286.384.49.655.61a2.41 2.41 0 0 0 .949.181c.195 0 .384-.015.564-.045a6.66 6.66 0 0 0 .61-.136zm8.116 2.349v-8.176l-.045-1.604c-.015-.557-.06-1.099-.136-1.626h2.665l.249 2.259-.249.022c.302-.813.783-1.445 1.446-1.897s1.445-.678 2.349-.678c1.069 0 1.905.271 2.507.814.617.527 1.016 1.34 1.197 2.439l-.542-.497c.301-.828.813-1.491 1.536-1.988.723-.512 1.566-.768 2.53-.768 1.28 0 2.236.392 2.868 1.175.633.768.949 1.942.949 3.523v7.002h-2.824v-6.911c0-.874-.15-1.514-.451-1.92-.286-.422-.768-.633-1.446-.633-.783 0-1.4.279-1.852.836-.437.542-.655 1.295-.655 2.259v6.369h-2.823v-6.911c0-.874-.158-1.514-.475-1.92-.301-.422-.783-.633-1.445-.633-.798 0-1.423.279-1.875.836-.436.542-.655 1.295-.655 2.259v6.369h-2.823zm20.066 5.127l-.632-2.168c.707-.151 1.295-.331 1.761-.542a3.36 3.36 0 0 0 1.152-.768c.317-.316.58-.723.791-1.22l.813-1.852.723-1.039 3.659-8.944h2.8l-5.285 12.174c-.436.994-.941 1.784-1.513 2.372-.572.602-1.22 1.054-1.943 1.355a9.24 9.24 0 0 1-2.326.632zm3.953-4.381l-5.263-12.152h2.959l3.591 8.944-1.287 3.208zm18.958-.588c-2.078 0-3.719-.474-4.923-1.423l.79-1.987a6.61 6.61 0 0 0 1.965 1.016c.708.226 1.446.339 2.214.339.692 0 1.219-.113 1.581-.339a1.06 1.06 0 0 0 .542-.948c0-.347-.128-.618-.384-.814-.256-.21-.693-.391-1.31-.542l-1.898-.429c-1.039-.226-1.822-.602-2.349-1.129-.511-.542-.767-1.227-.767-2.056 0-.692.195-1.302.587-1.829.391-.542.941-.964 1.649-1.265s1.528-.452 2.462-.452c.813 0 1.596.128 2.349.384.752.241 1.407.595 1.965 1.062l-.814 1.942c-.572-.436-1.159-.76-1.761-.971-.588-.211-1.175-.316-1.762-.316-.648 0-1.152.12-1.513.361a1.13 1.13 0 0 0-.542.994c0 .331.105.595.316.791.226.195.61.354 1.152.474l1.92.474c1.129.241 1.95.633 2.461 1.175.527.527.791 1.227.791 2.1 0 1.039-.422 1.867-1.265 2.485-.843.602-1.995.903-3.456.903zm5.604-9.441v-2.123h8.041v2.123h-8.041zm8.041 6.934v2.236c-.301.106-.603.173-.904.204-.286.045-.594.067-.926.067-1.28 0-2.273-.361-2.981-1.084-.693-.723-1.039-1.762-1.039-3.117v-10.141l2.823-.949v10.955c0 .512.083.918.249 1.219.165.286.384.49.655.61a2.41 2.41 0 0 0 .948.181 3.45 3.45 0 0 0 .565-.045 6.66 6.66 0 0 0 .61-.136zm7.112 2.507c-1.189 0-2.221-.241-3.094-.722-.858-.482-1.521-1.16-1.988-2.033-.466-.889-.7-1.943-.7-3.162 0-1.205.234-2.251.7-3.14.467-.903 1.13-1.596 1.988-2.078.873-.482 1.905-.723 3.094-.723 1.16 0 2.169.241 3.027.723.873.482 1.543 1.175 2.01 2.078.482.889.723 1.935.723 3.14 0 1.219-.241 2.273-.723 3.162a4.94 4.94 0 0 1-2.01 2.033c-.858.481-1.867.722-3.027.722zm0-2.168c.934 0 1.649-.309 2.146-.926.512-.632.768-1.574.768-2.823 0-1.235-.256-2.161-.768-2.778-.497-.633-1.212-.949-2.146-.949-.948 0-1.686.316-2.213.949-.512.617-.768 1.543-.768 2.778 0 1.249.256 2.191.768 2.823.512.617 1.25.926 2.213.926zm8.172 2.01v-8.176l-.045-1.604c-.015-.557-.06-1.099-.136-1.626h2.666l.316 2.936-.316-.158c.195-1.009.64-1.769 1.332-2.281s1.476-.768 2.349-.768a4.19 4.19 0 0 1 .633.045 2.32 2.32 0 0 1 .519.136l-.045 2.575c-.467-.196-.964-.294-1.491-.294-.677 0-1.234.135-1.671.406a2.67 2.67 0 0 0-.971 1.107c-.211.452-.317.964-.317 1.536v6.166h-2.823zm18.427-1.265c-.542.452-1.212.806-2.01 1.062-.783.241-1.581.361-2.394.361-1.235 0-2.304-.233-3.208-.7-.888-.467-1.573-1.144-2.055-2.033s-.723-1.942-.723-3.162c0-1.174.234-2.206.7-3.094.467-.904 1.115-1.604 1.943-2.101.828-.512 1.784-.768 2.868-.768 1.054 0 1.958.234 2.711.701.753.451 1.332 1.106 1.739 1.965.421.858.632 1.874.632 3.049v.429h-8.108l.022-1.513h6.415l-.768.768c.015-1.1-.203-1.935-.655-2.508-.437-.572-1.077-.858-1.92-.858-.903 0-1.604.324-2.1.971-.497.633-.746 1.544-.746 2.733 0 1.356.279 2.357.836 3.004.557.633 1.4.949 2.53.949.617 0 1.219-.098 1.806-.294a5.98 5.98 0 0 0 1.672-.903l.813 1.942z" fill="#fff"/><g clip-path="url(#B)"><path d="M62.437 34.509a1.66 1.66 0 0 0-1.063-.477c-6.22-.378-10.243 2.731-12.38 5.656-2.14-2.925-6.163-6.036-12.383-5.656-.402.025-.782.195-1.067.477C31.549 38.46 32 44.687 32.041 45.296a17.1 17.1 0 0 0 2.316 7.032c1.947 3.374 5.964 7.859 14.072 10.11l.129.037.092.022.126.022c.072.006.145.006.218 0a1.17 1.17 0 0 0 .208 0l.114-.019.104-.025.142-.041c14.984-4.17 16.284-15.996 16.372-17.104.041-.362.59-6.779-3.497-10.821zM47.346 48.27l-4.45-4.744a1.65 1.65 0 0 0-.521-.385c-.198-.093-.413-.146-.631-.156s-.437.023-.643.098a1.65 1.65 0 0 0-.555.336 1.63 1.63 0 0 0-.381.522c-.091.197-.141.41-.147.627s.031.432.109.634a1.63 1.63 0 0 0 .349.543l6.857 7.31v5.602c-11.361-4.089-11.976-13.159-11.992-13.559a.85.85 0 0 1 0-.087c0-.05-.432-4.719 2.13-7.75h.199c2.038-.033 4.041.528 5.759 1.613a10.31 10.31 0 0 1 3.903 4.489v.028l.013 4.879zm15.305-3.252a.73.73 0 0 0 0 .081c-.022.406-.631 9.473-11.992 13.562h-.016v-5.59l.016-.016 6.848-7.31a1.63 1.63 0 0 0 .337-.543 1.62 1.62 0 0 0-.049-1.249c-.091-.195-.219-.37-.378-.516s-.346-.259-.549-.333a1.67 1.67 0 0 0-.636-.1c-.217.008-.43.059-.627.148a1.65 1.65 0 0 0-.522.374l-4.434 4.729h-.016v-4.857l.016-.034c.549-1.211 3.178-6.099 9.679-6.099h.189c2.544 3.015 2.136 7.706 2.133 7.753z" fill="#88b04b"/><g fill="#36485c"><path d="M93.37 35.336a.95.95 0 0 1 .372.073c.118.049.224.121.313.211s.164.193.214.31a.93.93 0 0 1 .074.368v2.534a.97.97 0 0 1-.287.677.98.98 0 0 1-.685.284h-11.51v7.276h10.78a.99.99 0 0 1 .376.075.98.98 0 0 1 .319.212.97.97 0 0 1 .212.317c.049.119.074.245.074.373v2.531c-.004.255-.108.498-.29.678s-.428.283-.685.287H81.861v8.149c-.002.254-.106.497-.287.677s-.428.282-.685.284H77.97a.99.99 0 0 1-.686-.284.97.97 0 0 1-.289-.677V36.297a.93.93 0 0 1 .075-.368c.05-.116.123-.222.215-.309a1.04 1.04 0 0 1 .313-.211.95.95 0 0 1 .372-.073h15.4zm4.308 7.737a.96.96 0 0 1 .29-.676.99.99 0 0 1 .686-.282h2.739a.99.99 0 0 1 .69.28.97.97 0 0 1 .292.678v9.051c0 1.425.307 2.57.921 3.433s1.618 1.291 3.011 1.283c1.262 0 2.235-.428 2.919-1.283s1.02-2 1.01-3.433v-9.051c.003-.254.107-.497.289-.676a.99.99 0 0 1 .686-.282h2.742a.99.99 0 0 1 .685.284c.181.18.285.423.287.677V59.69c-.002.254-.106.497-.287.677a.99.99 0 0 1-.685.284h-2.742a.99.99 0 0 1-.685-.284.96.96 0 0 1-.287-.677v-.821a8.9 8.9 0 0 1-2.055 1.479 6.17 6.17 0 0 1-2.969.662 8.55 8.55 0 0 1-3.642-.681 6.03 6.03 0 0 1-2.307-1.816 7.04 7.04 0 0 1-1.228-2.666 13.78 13.78 0 0 1-.36-3.193v-9.582zm25.839 16.618a.97.97 0 0 1-.288.677c-.182.18-.427.282-.684.284h-2.742a.99.99 0 0 1-.685-.284.96.96 0 0 1-.287-.677V36.297a.93.93 0 0 1 .073-.368.94.94 0 0 1 .527-.521.95.95 0 0 1 .372-.073h2.742a.95.95 0 0 1 .372.073c.118.049.224.121.313.211s.164.193.213.31.075.242.074.368V59.69zm8.688 0a.97.97 0 0 1-.29.677.99.99 0 0 1-.686.284h-2.739a.99.99 0 0 1-.685-.284c-.183-.18-.287-.423-.29-.677V36.297a.93.93 0 0 1 .075-.368c.05-.116.123-.222.215-.309a.95.95 0 0 1 .685-.284h2.739c.128-.001.255.024.372.073s.224.121.313.211a1 1 0 0 1 .215.309.93.93 0 0 1 .076.368V59.69zm25.577-9.558a10.75 10.75 0 0 0 0 2.497 5.3 5.3 0 0 0 .505 1.873 3.83 3.83 0 0 0 .991 1.267c.389.317.836.559 1.316.712s.977.234 1.48.234a6.88 6.88 0 0 0 1.515-.144 3.57 3.57 0 0 0 1.044-.409 3.47 3.47 0 0 0 .739-.624c.217-.24.416-.496.596-.765a5.97 5.97 0 0 1 .502-.643.89.89 0 0 1 .308-.232.9.9 0 0 1 .38-.08h2.748a1.01 1.01 0 0 1 .704.287c.096.084.171.189.217.306a.77.77 0 0 1 .051.371 4.91 4.91 0 0 1-.539 1.816 6.71 6.71 0 0 1-1.578 2.051 8.9 8.9 0 0 1-2.724 1.657c-1.263.481-2.61.713-3.963.68a9.21 9.21 0 0 1-3.569-.662 8.85 8.85 0 0 1-2.759-1.782 8.29 8.29 0 0 1-1.839-2.603 9.51 9.51 0 0 1-.811-3.121c-.051-.474-.075-.95-.073-1.426-.001-.488.023-.975.073-1.461a8.9 8.9 0 0 1 .792-3.121 8.64 8.64 0 0 1 1.84-2.622 8.59 8.59 0 0 1 2.758-1.763c1.139-.454 2.359-.679 3.588-.662a10.52 10.52 0 0 1 3.963.662c1.002.387 1.924.95 2.724 1.66a6.71 6.71 0 0 1 1.578 2.051c.296.566.479 1.182.539 1.816a.77.77 0 0 1-.051.371.78.78 0 0 1-.217.306c-.187.184-.44.287-.704.287h-2.739a.91.91 0 0 1-.688-.312 6.03 6.03 0 0 1-.502-.643c-.18-.269-.379-.524-.596-.765a3.47 3.47 0 0 0-.738-.624 3.5 3.5 0 0 0-1.048-.403 6.94 6.94 0 0 0-1.515-.144 4.78 4.78 0 0 0-1.48.234c-.48.153-.927.395-1.316.712-.417.349-.754.781-.991 1.267a5.29 5.29 0 0 0-.511 1.891zm24.814-3.742c-1.441 0-2.481.312-3.118.936s-.953 1.652-.947 3.084v9.279a.97.97 0 0 1-.289.677.99.99 0 0 1-.686.284h-2.739a.99.99 0 0 1-.685-.284.96.96 0 0 1-.287-.677V43.073c.003-.252.105-.493.285-.672a.98.98 0 0 1 .677-.286h2.739a.99.99 0 0 1 .686.284c.182.18.286.423.29.677v.818a7.27 7.27 0 0 1 2-1.32 7.09 7.09 0 0 1 2.793-.459h.265a.99.99 0 0 1 .685.284.96.96 0 0 1 .287.677v2.353c-.002.255-.105.498-.287.678a.99.99 0 0 1-.685.286l-.984-.003zm9.114-11.055a.96.96 0 0 1 .372.073c.117.049.224.121.313.211a.94.94 0 0 1 .213.31c.05.116.075.242.074.368v2.784a.97.97 0 0 1-.288.677c-.182.18-.427.282-.684.284h-3.099a.99.99 0 0 1-.687-.283c-.182-.18-.286-.423-.288-.678v-2.784a.93.93 0 0 1 .073-.368.94.94 0 0 1 .214-.31c.089-.091.196-.163.314-.212a.96.96 0 0 1 .374-.072h3.099zm.792 24.345a.97.97 0 0 1-.287.677.99.99 0 0 1-.685.284h-2.739a.99.99 0 0 1-.686-.284.97.97 0 0 1-.289-.677V43.073a.97.97 0 0 1 .29-.675.99.99 0 0 1 .685-.283h2.739a.99.99 0 0 1 .685.284.97.97 0 0 1 .287.677v16.605zm14.084 1.329a8.48 8.48 0 0 1-2.001-.215 7.96 7.96 0 0 1-1.543-.534c-.404-.189-.785-.423-1.136-.696a6.25 6.25 0 0 1-.758-.696v7.591a.92.92 0 0 1-.073.369.93.93 0 0 1-.214.311c-.089.09-.195.162-.313.211a.96.96 0 0 1-.372.073h-2.742a.96.96 0 0 1-.372-.073c-.117-.049-.224-.121-.313-.211a.93.93 0 0 1-.214-.311.94.94 0 0 1-.073-.369V43.073c.003-.253.106-.494.286-.673a.99.99 0 0 1 .68-.285h2.742c.258.001.504.102.687.281s.288.422.291.677v.821a6.25 6.25 0 0 1 .758-.696 5.99 5.99 0 0 1 1.136-.696 7.97 7.97 0 0 1 1.549-.534c.656-.151 1.328-.223 2.001-.215a7.51 7.51 0 0 1 3.263.696c.944.446 1.788 1.075 2.48 1.851a8.82 8.82 0 0 1 1.622 2.675 9.69 9.69 0 0 1 .669 3.155l.035 1.249-.035 1.249a9.69 9.69 0 0 1-.669 3.156 8.82 8.82 0 0 1-1.622 2.675 7.77 7.77 0 0 1-2.486 1.854 7.51 7.51 0 0 1-3.263.699zm3.354-8.63a9.52 9.52 0 0 0 0-1.997c-.145-1.546-.626-2.657-1.442-3.334a4.54 4.54 0 0 0-2.995-1.018c-1.086-.031-2.146.338-2.973 1.036-.804.687-1.262 1.676-1.388 2.959a10.76 10.76 0 0 0-.073 1.355 10.61 10.61 0 0 0 .079 1.345 4.3 4.3 0 0 0 1.389 2.925 4.33 4.33 0 0 0 2.972 1.071 4.54 4.54 0 0 0 2.995-1.017c.812-.67 1.291-1.778 1.436-3.324zm7.89-10.352v-5.731c-.001-.126.025-.252.075-.368a.94.94 0 0 1 .215-.309c.091-.093.2-.165.32-.214a.96.96 0 0 1 .381-.07h2.739a.95.95 0 0 1 .371.073c.118.049.225.121.313.211a.93.93 0 0 1 .291.677v5.818h4.648a.99.99 0 0 1 .686.284.97.97 0 0 1 .289.677v2.353c-.004.255-.108.498-.29.678s-.427.283-.685.287h-4.664v7.553a2.53 2.53 0 0 0 .593 1.767c.398.441 1.134.661 2.209.659h2.209a.99.99 0 0 1 .685.286c.182.18.285.424.287.678v2.353a.96.96 0 0 1-.287.677.99.99 0 0 1-.685.284h-2.669c-2.26 0-3.997-.541-5.211-1.623s-1.82-2.739-1.82-4.972V42.028zm-71.592 13.33a.85.85 0 0 0-.06-.349.87.87 0 0 0-.195-.297 2.39 2.39 0 0 0-.884-.465 14.63 14.63 0 0 0-1.701-.428l-2.679-.574a11.26 11.26 0 0 1-2.638-.893 5.61 5.61 0 0 1-1.682-1.248 4.04 4.04 0 0 1-.89-1.632 7.39 7.39 0 0 1-.253-1.985 4.76 4.76 0 0 1 .505-2.11c.352-.71.851-1.338 1.465-1.845a7.67 7.67 0 0 1 2.335-1.305 9.14 9.14 0 0 1 3.156-.503 11.66 11.66 0 0 1 3.155.393 8.56 8.56 0 0 1 2.37 1.039 5.11 5.11 0 0 1 1.518 1.486c.343.508.554 1.091.616 1.698.012.127-.006.254-.053.373a.79.79 0 0 1-.219.308 1.01 1.01 0 0 1-.707.287h-2.783a1.36 1.36 0 0 1-.814-.2l-.597-.446a3.29 3.29 0 0 0-.858-.446 5.08 5.08 0 0 0-1.628-.197 5.29 5.29 0 0 0-1.919.312 1.16 1.16 0 0 0-.613.433 1.15 1.15 0 0 0-.217.713 1.08 1.08 0 0 0 .199.662 1.69 1.69 0 0 0 .757.484 13.4 13.4 0 0 0 1.556.446l2.588.556c2.146.452 3.658 1.161 4.538 2.129a5.14 5.14 0 0 1 1.322 3.596 4.39 4.39 0 0 1-.543 2.091c-.39.712-.928 1.334-1.578 1.826-.757.574-1.612 1.009-2.524 1.286a10.95 10.95 0 0 1-3.383.484 11.67 11.67 0 0 1-3.383-.446 8.69 8.69 0 0 1-2.478-1.164 5.45 5.45 0 0 1-1.555-1.611 3.69 3.69 0 0 1-.578-1.751.79.79 0 0 1 .052-.373.78.78 0 0 1 .22-.307c.187-.184.44-.287.703-.287h2.784a1.15 1.15 0 0 1 .814.253l.615.571c.278.246.599.44.947.571a5.1 5.1 0 0 0 1.843.253c.376-.001.751-.025 1.123-.072a5.62 5.62 0 0 0 1.067-.234c.296-.091.572-.236.814-.428.105-.075.191-.173.252-.286a.84.84 0 0 0 .098-.366z"/></g></g><path opacity=".35" fill="#307553" d="M437.686 415.21l25.021-5.391 22.849 106.061-25.021 5.391z"/><g fill="#fff"><path d="M423.288 418.213l14.191-3.057 22.849 106.061-14.191 3.057zm-74.762-27.391l-2.889-13.413 55.41-11.937 2.89 13.413-8.931 1.924 15.161 19.127 4.626 21.474-35.105 7.562-25.021 5.391-5.592-25.955 8.768-12.787-1.401-6.504-7.916 1.705z"/><path d="M354.597 435.236l-4.933-22.899c-1.068-4.958 1.356-13.199 6.321-14.268a3.17 3.17 0 0 0 1.134-.495 3.15 3.15 0 0 0 .857-.892 3.16 3.16 0 0 0 .45-1.153c.072-.41.063-.83-.028-1.236l-.926-4.3 39.096-8.423.927 4.3a3.17 3.17 0 0 0 .487 1.143c.237.345.539.639.89.866a3.16 3.16 0 0 0 1.156.457c.411.074.833.066 1.242-.024"/></g><g stroke="#36485c" stroke-width="3.82" stroke-linejoin="round"><path d="M354.597 435.236l-4.933-22.899c-1.068-4.958 1.356-13.199 6.321-14.268a3.17 3.17 0 0 0 1.134-.495 3.15 3.15 0 0 0 .857-.892 3.16 3.16 0 0 0 .45-1.153c.072-.41.063-.83-.028-1.236l-.926-4.3 39.096-8.423.927 4.3a3.17 3.17 0 0 0 .487 1.143 3.15 3.15 0 0 0 .89.866 3.16 3.16 0 0 0 1.156.457c.411.074.833.066 1.242-.024" stroke-linecap="round"/><path d="M399.348 365.534l-51.012 10.99c-1.734.373-2.836 2.082-2.463 3.816l1.826 8.474c.373 1.734 2.082 2.836 3.816 2.463l51.012-10.99a3.21 3.21 0 0 0 2.463-3.816l-1.826-8.474a3.21 3.21 0 0 0-3.816-2.463z" fill="#275e42"/></g><use xlink:href="#D" fill="#fff"/><g stroke="#36485c" stroke-width="3.82" stroke-linejoin="round"><use xlink:href="#D" stroke-linecap="round"/><path d="M441.103 379.292l-38.467 8.287c-1.734.374-2.837 2.082-2.464 3.816l1.826 8.475c.374 1.733 2.082 2.836 3.816 2.463l38.467-8.288a3.21 3.21 0 0 0 2.463-3.815l-1.825-8.475c-.374-1.734-2.082-2.836-3.816-2.463z" fill="#275e42"/><path d="M438.087 417.078l-101.953 21.964 20.516 95.231a9.17 9.17 0 0 0 10.894 7.032l92.99-20.034-22.447-104.193z"/><path d="M489.25 406.056l-51.163 11.023 22.447 104.193 42.2-9.092a9.17 9.17 0 0 0 7.032-10.893l-20.516-95.231z"/><path d="M488.065 406.503l-51.103 11.01 27.144-42.257a3.06 3.06 0 0 1 1.928-1.336l42.671-9.192c2.659-.573 4.685 2.351 3.215 4.639l-23.855 37.136z"/><path d="M350.243 404.654L344.621 401a3.06 3.06 0 0 0-2.309-.425l-42.669 9.193c-2.659.573-3.301 4.072-1.02 5.551l37.031 24.02" stroke-linecap="round"/></g><g clip-path="url(#C)"><path d="M412.227 472.918l.029.138c.12.553 1.776 12.354-11.693 20.756l-1.565-7.261 6.792-11.306a2.11 2.11 0 0 0-.782-2.943c-1.011-.578-2.351-.29-3.004.792l-4.332 7.302-1.341-6.225-.015-.069c.363-1.742 2.408-8.696 10.732-10.489l.212-.046c4.149 3.159 4.952 9.282 4.967 9.351zm-18.787 8.389l-7.025-4.855c-.955-.662-2.31-.443-2.993.5s-.455 2.342.5 3.005l10.844 7.505 1.549 7.193c-15.734-2.11-19.028-13.631-19.203-14.1l-.03-.138c-.015-.069-1.875-5.964.606-10.552l.282-.06c8.394-1.809 13.066 3.77 14.099 5.14l.015.069 1.356 6.293zm15.584-21.883c-.427-.27-.965-.371-1.474-.334-8.076 1.233-12.431 6.369-14.378 10.696-3.556-3.142-9.569-6.043-17.507-3.827-.493.107-.928.49-1.206.911-4.062 6.158-1.769 14.059-1.535 14.805.12.553 1.321 4.419 4.915 8.421 3.407 3.825 9.864 8.441 20.859 9.111.071-.015.142-.03.156.039l.142-.03.141-.031.282-.061.282-.06.141-.031.141-.03c.071-.015.141-.031.197-.115 18.11-9.474 16.525-25.053 16.283-26.521-.019-.43-1.101-8.881-7.439-12.943z" fill="#36485c"/></g></g><defs><clipPath id="A"><path fill="#fff" d="M0 0h500v500H0z"/></clipPath><clipPath id="B"><path fill="#fff" transform="translate(32 34)" d="M0 0h196.503v33.428H0z"/></clipPath><clipPath id="C"><path fill="#fff" transform="matrix(.977571 -.210605 .210605 .977571 369.312 466.966)" d="M0 0h45.46v38.202H0z"/></clipPath><path id="D" d="M402.567 423.702c-1.07-4.964 1.362-13.207 6.32-14.275a3.16 3.16 0 0 0 2.419-3.748l-.925-4.293 29.37-6.328.932 4.328a3.16 3.16 0 0 0 1.379 1.957c.698.446 4.516.715 4.516.715l-8.326 13.956"/></defs></svg>